# Made in Blockbench 5.0.7
mtllib Center.mtl

o mesh
v 0.5 0.875 0.5
v 0.5 0.875 -0.5
v 0.5 0 0.5
v 0.5 0 -0.5
v -0.5 0.875 0.5
v -0.5 0.875 -0.5
v -0.5 0 0.5
v -0.5 0 -0.5
vt 7.5 1
vt 6.5 1
vt 6.5 0.125
vt 7.5 0.125
vt 2.0625 -6.4375
vt 2.0625 -5.5625
vt 1.0625 -5.5625
vt 1.0625 -6.4375
vt 4.375 0
vt 5.375 0
vt 5.375 1
vt 4.375 1
vt 3.1875 -4.4375
vt 3.1875 -3.4375
vt 2.1875 -3.4375
vt 2.1875 -4.4375
vt 3.125 -6.4375
vt 3.125 -5.5625
vt 2.125 -5.5625
vt 2.125 -6.4375
vt 4.1875 -5.5625
vt 3.1875 -5.5625
vt 3.1875 -6.4375
vt 4.1875 -6.4375
vn 1 0 0
vn -1 0 0
vn 0 1 0
vn 0 -1 0
vn 0 0 1
vn 0 0 -1
usemtl none
f 2/1/1 1/2/1 3/3/1 4/4/1
f 7/5/2 5/6/2 6/7/2 8/8/2
f 5/9/3 1/10/3 2/11/3 6/12/3
f 4/13/4 3/14/4 7/15/4 8/16/4
f 3/17/5 1/18/5 5/19/5 7/20/5
f 6/21/6 2/22/6 4/23/6 8/24/6
o mesh
v 0.5 1 0.5
v 0.5 1 -0.5
v 0.5 0.875 0.5
v 0.5 0.875 -0.5
v -0.5 1 0.5
v -0.5 1 -0.5
v -0.5 0.875 0.5
v -0.5 0.875 -0.5
vt 10.375 -1.625
vt 9.375 -1.625
vt 9.375 -1.75
vt 10.375 -1.75
vt 9.6875 -8.5
vt 9.6875 -8.375
vt 8.6875 -8.375
vt 8.6875 -8.5
vt 3.25 -4.4375
vt 4.25 -4.4375
vt 4.25 -3.4375
vt 3.25 -3.4375
vt 5.3125 -4.4375
vt 5.3125 -3.4375
vt 4.3125 -3.4375
vt 4.3125 -4.4375
vt 10.5625 -5.0625
vt 10.5625 -4.9375
vt 9.5625 -4.9375
vt 9.5625 -5.0625
vt 10.5625 -5.125
vt 9.5625 -5.125
vt 9.5625 -5.25
vt 10.5625 -5.25
vn 1 0 0
vn -1 0 0
vn 0 1 0
vn 0 -1 0
vn 0 0 1
vn 0 0 -1
usemtl none
f 10/25/7 9/26/7 11/27/7 12/28/7
f 15/29/8 13/30/8 14/31/8 16/32/8
f 13/33/9 9/34/9 10/35/9 14/36/9
f 12/37/10 11/38/10 15/39/10 16/40/10
f 11/41/11 9/42/11 13/43/11 15/44/11
f 14/45/12 10/46/12 12/47/12 16/48/12