# Made in Blockbench 5.0.7
mtllib Door.mtl

o Door
v 2.1874999999999982 5.25 -7.874999999999997
v -2.1875000000000018 5.25 -7.874999999999999
v 2.1874999999999982 0 -7.874999999999997
v -2.1875000000000018 0 -7.874999999999999
v 2.1874999999999982 5.25 -7.749999999999997
v -2.1875000000000018 5.25 -7.749999999999999
v 2.1874999999999982 0 -7.749999999999997
v -2.1875000000000018 0 -7.749999999999999
v -0.4375000000000017 3.0625 -7.999999999999998
v -0.4375000000000018 3.0625 -7.901855624999998
v -0.45580562500000177 3.018305625 -7.901855624999998
v -0.4558056250000017 3.03125 -7.968749999999998
v -0.5000000000000018 3 -7.901855624999998
v -0.5000000000000018 3.018305625 -7.955805624999998
v -0.5441943750000018 3.018305625 -7.901855624999998
v -0.5441943750000018 3.03125 -7.968749999999998
v -0.5625000000000018 3.0625 -7.901855624999998
v -0.5625000000000018 3.0625 -7.999999999999998
v -0.5441943750000018 3.106694375 -7.901855624999998
v -0.5441943750000018 3.09375 -8.031249999999998
v -0.5000000000000018 3.125 -7.901855624999998
v -0.5000000000000018 3.106694375 -8.044194374999998
v -0.45580562500000177 3.106694375 -7.901855624999998
v -0.4558056250000017 3.09375 -8.031249999999998
v -0.4375000000000018 3.0625 -7.812499999999998
v -0.45580562500000177 3.018305625 -7.812499999999998
v -0.5000000000000018 3 -7.812499999999998
v -0.5441943750000018 3.018305625 -7.812499999999998
v -0.5625000000000018 3.0625 -7.812499999999998
v -0.5441943750000018 3.106694375 -7.812499999999998
v -0.5000000000000018 3.125 -7.812499999999998
v -0.45580562500000177 3.106694375 -7.812499999999998
v -0.4375000000000018 3.0625 -7.723144374999999
v -0.45580562500000177 3.018305625 -7.723144374999999
v -0.5000000000000018 3 -7.723144374999999
v -0.5441943750000018 3.018305625 -7.723144374999999
v -0.5625000000000018 3.0625 -7.723144374999999
v -0.5441943750000018 3.106694375 -7.723144374999999
v -0.5000000000000018 3.125 -7.723144374999999
v -0.45580562500000177 3.106694375 -7.723144374999999
v -0.43750000000000183 3.0625 -7.624999999999998
v -0.4558056250000018 3.03125 -7.656249999999998
v -0.5000000000000018 3.018305625 -7.669194374999998
v -0.5441943750000018 3.03125 -7.656249999999998
v -0.5625000000000018 3.0625 -7.624999999999998
v -0.5441943750000018 3.09375 -7.593749999999998
v -0.5000000000000018 3.106694375 -7.580805624999998
v -0.4558056250000018 3.09375 -7.593749999999998
v -0.43750000000000183 2.80078125 -7.624999999999998
v -0.4558056250000018 2.80078125 -7.669194374999998
v -0.5000000000000018 2.80078125 -7.687499999999998
v -0.5441943750000018 2.80078125 -7.669194374999998
v -0.5625000000000018 2.80078125 -7.624999999999998
v -0.5441943750000018 2.80078125 -7.580805624999998
v -0.5000000000000019 2.80078125 -7.562499999999998
v -0.4558056250000018 2.80078125 -7.580805624999998
v -0.43750000000000183 2.5625 -7.624999999999998
v -0.4558056250000018 2.5625 -7.669194374999998
v -0.5000000000000018 2.5625 -7.687499999999998
v -0.5441943750000018 2.5625 -7.669194374999998
v -0.5625000000000018 2.5625 -7.624999999999998
v -0.5441943750000018 2.5625 -7.580805624999998
v -0.5000000000000019 2.5625 -7.562499999999998
v -0.4558056250000018 2.5625 -7.580805624999998
v -0.43750000000000183 2.32421875 -7.624999999999998
v -0.4558056250000018 2.32421875 -7.669194374999998
v -0.5000000000000018 2.32421875 -7.687499999999998
v -0.5441943750000018 2.32421875 -7.669194374999998
v -0.5625000000000018 2.32421875 -7.624999999999998
v -0.5441943750000018 2.32421875 -7.580805624999998
v -0.5000000000000019 2.32421875 -7.562499999999998
v -0.4558056250000018 2.32421875 -7.580805624999998
v -0.43750000000000183 2.0625 -7.624999999999998
v -0.4558056250000018 2.09375 -7.656249999999998
v -0.5000000000000018 2.106694375 -7.669194374999998
v -0.5441943750000018 2.09375 -7.656249999999998
v -0.5625000000000018 2.0625 -7.624999999999998
v -0.5441943750000018 2.03125 -7.593749999999998
v -0.5000000000000018 2.018305625 -7.580805624999998
v -0.4558056250000018 2.03125 -7.593749999999998
v -0.4375000000000018 2.0625 -7.723144374999999
v -0.45580562500000177 2.106694375 -7.723144374999999
v -0.5000000000000018 2.125 -7.723144374999999
v -0.5441943750000018 2.106694375 -7.723144374999999
v -0.5625000000000018 2.0625 -7.723144374999999
v -0.5441943750000018 2.018305625 -7.723144374999999
v -0.5000000000000018 2 -7.723144374999999
v -0.45580562500000177 2.018305625 -7.723144374999999
v -0.4375000000000018 2.0625 -7.812499999999998
v -0.45580562500000177 2.106694375 -7.812499999999998
v -0.5000000000000018 2.125 -7.812499999999998
v -0.5441943750000018 2.106694375 -7.812499999999998
v -0.5625000000000018 2.0625 -7.812499999999998
v -0.5441943750000018 2.018305625 -7.812499999999998
v -0.5000000000000018 2 -7.812499999999998
v -0.45580562500000177 2.018305625 -7.812499999999998
v -0.4375000000000018 2.0625 -7.901855624999998
v -0.45580562500000177 2.106694375 -7.901855624999998
v -0.5000000000000018 2.125 -7.901855624999998
v -0.5441943750000018 2.106694375 -7.901855624999998
v -0.5625000000000018 2.0625 -7.901855624999998
v -0.5441943750000018 2.018305625 -7.901855624999998
v -0.5000000000000018 2 -7.901855624999998
v -0.45580562500000177 2.018305625 -7.901855624999998
v -0.4375000000000017 2.0625 -7.999999999999998
v -0.4558056250000017 2.09375 -7.968749999999998
v -0.5000000000000018 2.106694375 -7.955805624999998
v -0.5441943750000018 2.09375 -7.968749999999998
v -0.5625000000000018 2.0625 -7.999999999999998
v -0.5441943750000018 2.03125 -8.031249999999998
v -0.5000000000000018 2.018305625 -8.044194374999998
v -0.4558056250000017 2.03125 -8.031249999999998
v -0.4375000000000017 2.32421875 -7.999999999999998
v -0.4558056250000017 2.32421875 -7.955805624999998
v -0.5000000000000018 2.32421875 -7.937499999999998
v -0.5441943750000018 2.32421875 -7.955805624999998
v -0.5625000000000018 2.32421875 -7.999999999999998
v -0.5441943750000018 2.32421875 -8.044194374999998
v -0.5000000000000018 2.32421875 -8.062499999999998
v -0.4558056250000017 2.32421875 -8.044194374999998
v -0.4375000000000017 2.5625 -7.999999999999998
v -0.4558056250000017 2.5625 -7.955805624999998
v -0.5000000000000018 2.5625 -7.937499999999998
v -0.5441943750000018 2.5625 -7.955805624999998
v -0.5625000000000018 2.5625 -7.999999999999998
v -0.5441943750000018 2.5625 -8.044194374999998
v -0.5000000000000018 2.5625 -8.062499999999998
v -0.4558056250000017 2.5625 -8.044194374999998
v -0.4375000000000017 2.80078125 -7.999999999999998
v -0.4558056250000017 2.80078125 -7.955805624999998
v -0.5000000000000018 2.80078125 -7.937499999999998
v -0.5441943750000018 2.80078125 -7.955805624999998
v -0.5625000000000018 2.80078125 -7.999999999999998
v -0.5441943750000018 2.80078125 -8.044194374999998
v -0.5000000000000018 2.80078125 -8.062499999999998
v -0.4558056250000017 2.80078125 -8.044194374999998
v 0.5624999999999982 3.0625 -7.999999999999998
v 0.5624999999999982 3.0625 -7.901855624999998
v 0.5441943749999982 3.018305625 -7.901855624999998
v 0.5441943749999982 3.03125 -7.968749999999998
v 0.4999999999999982 3 -7.901855624999998
v 0.4999999999999982 3.018305625 -7.955805624999998
v 0.4558056249999982 3.018305625 -7.901855624999998
v 0.45580562499999827 3.03125 -7.968749999999998
v 0.4374999999999982 3.0625 -7.901855624999998
v 0.4374999999999983 3.0625 -7.999999999999998
v 0.4558056249999982 3.106694375 -7.901855624999998
v 0.45580562499999827 3.09375 -8.031249999999998
v 0.4999999999999982 3.125 -7.901855624999998
v 0.4999999999999982 3.106694375 -8.044194374999998
v 0.5441943749999982 3.106694375 -7.901855624999998
v 0.5441943749999982 3.09375 -8.031249999999998
v 0.5624999999999982 3.0625 -7.812499999999998
v 0.5441943749999982 3.018305625 -7.812499999999998
v 0.4999999999999982 3 -7.812499999999998
v 0.4558056249999982 3.018305625 -7.812499999999998
v 0.4374999999999982 3.0625 -7.812499999999998
v 0.4558056249999982 3.106694375 -7.812499999999998
v 0.4999999999999982 3.125 -7.812499999999998
v 0.5441943749999982 3.106694375 -7.812499999999998
v 0.5624999999999982 3.0625 -7.723144374999999
v 0.5441943749999982 3.018305625 -7.723144374999999
v 0.4999999999999982 3 -7.723144374999999
v 0.4558056249999982 3.018305625 -7.723144374999999
v 0.4374999999999982 3.0625 -7.723144374999999
v 0.4558056249999982 3.106694375 -7.723144374999999
v 0.4999999999999982 3.125 -7.723144374999999
v 0.5441943749999982 3.106694375 -7.723144374999999
v 0.5624999999999982 3.0625 -7.624999999999998
v 0.5441943749999982 3.03125 -7.656249999999998
v 0.49999999999999817 3.018305625 -7.669194374999998
v 0.45580562499999816 3.03125 -7.656249999999998
v 0.43749999999999817 3.0625 -7.624999999999998
v 0.45580562499999816 3.09375 -7.593749999999998
v 0.49999999999999817 3.106694375 -7.580805624999998
v 0.5441943749999982 3.09375 -7.593749999999998
v 0.5624999999999982 2.80078125 -7.624999999999998
v 0.5441943749999982 2.80078125 -7.669194374999998
v 0.49999999999999817 2.80078125 -7.687499999999998
v 0.45580562499999816 2.80078125 -7.669194374999998
v 0.43749999999999817 2.80078125 -7.624999999999998
v 0.45580562499999816 2.80078125 -7.580805624999998
v 0.49999999999999817 2.80078125 -7.562499999999998
v 0.5441943749999982 2.80078125 -7.580805624999998
v 0.5624999999999982 2.5625 -7.624999999999998
v 0.5441943749999982 2.5625 -7.669194374999998
v 0.49999999999999817 2.5625 -7.687499999999998
v 0.45580562499999816 2.5625 -7.669194374999998
v 0.43749999999999817 2.5625 -7.624999999999998
v 0.45580562499999816 2.5625 -7.580805624999998
v 0.49999999999999817 2.5625 -7.562499999999998
v 0.5441943749999982 2.5625 -7.580805624999998
v 0.5624999999999982 2.32421875 -7.624999999999998
v 0.5441943749999982 2.32421875 -7.669194374999998
v 0.49999999999999817 2.32421875 -7.687499999999998
v 0.45580562499999816 2.32421875 -7.669194374999998
v 0.43749999999999817 2.32421875 -7.624999999999998
v 0.45580562499999816 2.32421875 -7.580805624999998
v 0.49999999999999817 2.32421875 -7.562499999999998
v 0.5441943749999982 2.32421875 -7.580805624999998
v 0.5624999999999982 2.0625 -7.624999999999998
v 0.5441943749999982 2.09375 -7.656249999999998
v 0.49999999999999817 2.106694375 -7.669194374999998
v 0.45580562499999816 2.09375 -7.656249999999998
v 0.43749999999999817 2.0625 -7.624999999999998
v 0.45580562499999816 2.03125 -7.593749999999998
v 0.49999999999999817 2.018305625 -7.580805624999998
v 0.5441943749999982 2.03125 -7.593749999999998
v 0.5624999999999982 2.0625 -7.723144374999999
v 0.5441943749999982 2.106694375 -7.723144374999999
v 0.4999999999999982 2.125 -7.723144374999999
v 0.4558056249999982 2.106694375 -7.723144374999999
v 0.4374999999999982 2.0625 -7.723144374999999
v 0.4558056249999982 2.018305625 -7.723144374999999
v 0.4999999999999982 2 -7.723144374999999
v 0.5441943749999982 2.018305625 -7.723144374999999
v 0.5624999999999982 2.0625 -7.812499999999998
v 0.5441943749999982 2.106694375 -7.812499999999998
v 0.4999999999999982 2.125 -7.812499999999998
v 0.4558056249999982 2.106694375 -7.812499999999998
v 0.4374999999999982 2.0625 -7.812499999999998
v 0.4558056249999982 2.018305625 -7.812499999999998
v 0.4999999999999982 2 -7.812499999999998
v 0.5441943749999982 2.018305625 -7.812499999999998
v 0.5624999999999982 2.0625 -7.901855624999998
v 0.5441943749999982 2.106694375 -7.901855624999998
v 0.4999999999999982 2.125 -7.901855624999998
v 0.4558056249999982 2.106694375 -7.901855624999998
v 0.4374999999999982 2.0625 -7.901855624999998
v 0.4558056249999982 2.018305625 -7.901855624999998
v 0.4999999999999982 2 -7.901855624999998
v 0.5441943749999982 2.018305625 -7.901855624999998
v 0.5624999999999982 2.0625 -7.999999999999998
v 0.5441943749999982 2.09375 -7.968749999999998
v 0.4999999999999982 2.106694375 -7.955805624999998
v 0.45580562499999827 2.09375 -7.968749999999998
v 0.4374999999999983 2.0625 -7.999999999999998
v 0.45580562499999827 2.03125 -8.031249999999998
v 0.4999999999999982 2.018305625 -8.044194374999998
v 0.5441943749999982 2.03125 -8.031249999999998
v 0.5624999999999982 2.32421875 -7.999999999999998
v 0.5441943749999982 2.32421875 -7.955805624999998
v 0.4999999999999982 2.32421875 -7.937499999999998
v 0.45580562499999827 2.32421875 -7.955805624999998
v 0.4374999999999983 2.32421875 -7.999999999999998
v 0.45580562499999827 2.32421875 -8.044194374999998
v 0.4999999999999982 2.32421875 -8.062499999999998
v 0.5441943749999982 2.32421875 -8.044194374999998
v 0.5624999999999982 2.5625 -7.999999999999998
v 0.5441943749999982 2.5625 -7.955805624999998
v 0.4999999999999982 2.5625 -7.937499999999998
v 0.45580562499999827 2.5625 -7.955805624999998
v 0.4374999999999983 2.5625 -7.999999999999998
v 0.45580562499999827 2.5625 -8.044194374999998
v 0.4999999999999982 2.5625 -8.062499999999998
v 0.5441943749999982 2.5625 -8.044194374999998
v 0.5624999999999982 2.80078125 -7.999999999999998
v 0.5441943749999982 2.80078125 -7.955805624999998
v 0.4999999999999982 2.80078125 -7.937499999999998
v 0.45580562499999827 2.80078125 -7.955805624999998
v 0.4374999999999983 2.80078125 -7.999999999999998
v 0.45580562499999827 2.80078125 -8.044194374999998
v 0.4999999999999982 2.80078125 -8.062499999999998
v 0.5441943749999982 2.80078125 -8.044194374999998
v -3.6875000000000018 5.25 -7.812499999999999
v -3.6875000000000018 5.25 -7.812499999999999
v -3.6875000000000018 1.5 -7.812499999999999
v -3.6875000000000018 1.5 -7.812499999999999
v -10.687500000000002 5.25 -7.812500000000001
v -10.687500000000002 5.25 -7.812500000000001
v -10.687500000000002 1.5 -7.812500000000001
v -10.687500000000002 1.5 -7.812500000000001
v 10.687499999999998 5.25 -7.812499999999996
v 10.687499999999998 5.25 -7.812499999999996
v 10.687499999999998 1.5 -7.812499999999996
v 10.687499999999998 1.5 -7.812499999999996
v 3.6874999999999982 5.25 -7.812499999999997
v 3.6874999999999982 5.25 -7.812499999999997
v 3.6874999999999982 1.5 -7.812499999999997
v 3.6874999999999982 1.5 -7.812499999999997
vt 0.2734375 0.5234375
vt 0 0.5234375
vt 0 0.1953125
vt 0.2734375 0.1953125
vt 0.55078125 0.1953125
vt 0.55078125 0.5234375
vt 0.27734375 0.5234375
vt 0.27734375 0.1953125
vt 0.60546875 0.25
vt 0.61328125 0.25
vt 0.61328125 0.5234375
vt 0.60546875 0.5234375
vt 0.625 0.25
vt 0.625 0.5234375
vt 0.6171875 0.5234375
vt 0.6171875 0.25
vt 0.578125 0.12109375
vt 0.578125 0.44921875
vt 0.5703125 0.44921875
vt 0.5703125 0.12109375
vt 0.58984375 0.41796875
vt 0.58203125 0.41796875
vt 0.58203125 0.08984375
vt 0.58984375 0.08984375
vt 0.71484375 0.40142734375
vt 0.708709765625 0.40142734375
vt 0.708709765625 0.3984375
vt 0.712890625 0.39918515624999995
vt 0.7054325263041391 0.32513018451929265
vt 0.7011854117281789 0.32482051725227057
vt 0.7011854117281789 0.3218305112651155
vt 0.7046908516373114 0.3222685290847944
vt 0.5822089068876971 0.4449626726636233
vt 0.58203125 0.44140625
vt 0.5859375 0.4416253344586867
vt 0.5859375 0.4458498359092846
vt 0.56836031821966 0.4655909216795222
vt 0.5725527002286495 0.46484375
vt 0.5725527002286495 0.46783342890109303
vt 0.5664353848918541 0.4678335079082582
vt 0.693359375 0.50482265625
vt 0.699493359375 0.50482265625
vt 0.699493359375 0.5078125
vt 0.69140625 0.507065234375
vt 0.6620746995874578 0.4145416861054416
vt 0.6701961942990936 0.4148515506430779
vt 0.6701961942990936 0.41784108114686214
vt 0.6612403683354869 0.41740328025449536
vt 0.57421875 0.5066555250847595
vt 0.57421875 0.515625
vt 0.5703125 0.5154791301788267
vt 0.5703996637818134 0.5073548614235989
vt 0.5917552413900152 0.5226899552491155
vt 0.5836623341189621 0.5234375
vt 0.5836623341189621 0.5204476732448386
vt 0.5897916153599415 0.5204476949350096
vt 0.708709765625 0.40142734375
vt 0.703125 0.40142734375
vt 0.703125 0.3984375
vt 0.708709765625 0.3984375
vt 0.7011854117281789 0.32482051725227057
vt 0.695600646103179 0.32482051725227057
vt 0.695600646103179 0.32183067350227057
vt 0.7011854117281789 0.32183067350227057
vt 0.7009223225021126 0.3193172981075011
vt 0.6954847402192613 0.32059099587518525
vt 0.6948028571169423 0.31767994776768416
vt 0.7002404393997936 0.31640625
vt 0.5725527002286495 0.46484375
vt 0.5781374658536496 0.46484375
vt 0.5781374658536496 0.467833203125
vt 0.5725527002286495 0.467833203125
vt 0.699493359375 0.50482265625
vt 0.705078125 0.50482265625
vt 0.705078125 0.5078125
vt 0.699493359375 0.5078125
vt 0.6701961942990936 0.4148515506430779
vt 0.6757809599240936 0.4148515506430779
vt 0.6757809599240936 0.41784100376807787
vt 0.6701961942990936 0.41784100376807787
vt 0.6702440000074348 0.4188992311319918
vt 0.6758032013018178 0.41836548207605684
vt 0.6760889102984654 0.42134125094406505
vt 0.6705297090040824 0.421875
vt 0.5836623341189621 0.5234375
vt 0.578077568493962 0.5234375
vt 0.578077568493962 0.52044765625
vt 0.5836623341189621 0.52044765625
vt 0.703125 0.40142734375
vt 0.697540234375 0.40142734375
vt 0.697540234375 0.3984375
vt 0.703125 0.3984375
vt 0.695600646103179 0.32482051725227057
vt 0.690015880478179 0.32482051725227057
vt 0.690015880478179 0.32183067350227057
vt 0.695600646103179 0.32183067350227057
vt 0.6954847402192613 0.32059099587518525
vt 0.69004715793641 0.3218646936428694
vt 0.6893652748340912 0.3189536455353682
vt 0.6948028571169423 0.31767994776768416
vt 0.5781374658536496 0.46484375
vt 0.5837222314786495 0.46484375
vt 0.5837222314786495 0.467833203125
vt 0.5781374658536496 0.467833203125
vt 0.705078125 0.50482265625
vt 0.710662890625 0.50482265625
vt 0.710662890625 0.5078125
vt 0.705078125 0.5078125
vt 0.6757809599240936 0.4148515506430779
vt 0.6813657255490936 0.4148515506430779
vt 0.6813657255490936 0.41784100376807787
vt 0.6757809599240936 0.41784100376807787
vt 0.6758032013018178 0.41836548207605684
vt 0.6813624025962008 0.4178317330201219
vt 0.6816481115928484 0.4208075018881301
vt 0.6760889102984654 0.42134125094406505
vt 0.578077568493962 0.5234375
vt 0.572492802868962 0.5234375
vt 0.572492802868962 0.52044765625
vt 0.578077568493962 0.52044765625
vt 0.697540234375 0.40142734375
vt 0.69140625 0.40142734375
vt 0.693359375 0.399163671875
vt 0.697540234375 0.39846562500000005
vt 0.690015880478179 0.32482051725227057
vt 0.6857693658740315 0.32513394323732925
vt 0.6865058244674946 0.32223655783320104
vt 0.690015880478179 0.3218679779895096
vt 0.69004715793641 0.3218646936428694
vt 0.6865058244674946 0.32223655783320104
vt 0.6851924736958609 0.3195506505488097
vt 0.6893777735880277 0.31900700434990603
vt 0.5837222314786495 0.46484375
vt 0.5879107492114326 0.4656124118188202
vt 0.5898146151081459 0.4679176404364648
vt 0.5837222314786495 0.46775200506795456
vt 0.710662890625 0.50482265625
vt 0.716796875 0.50482265625
vt 0.71875 0.507086328125
vt 0.710662890625 0.507784375
vt 0.6813657255490936 0.4148515506430779
vt 0.6894873266077675 0.4145411762946234
vt 0.6903221316645131 0.41741209374110577
vt 0.6813657255490936 0.4178315773857779
vt 0.6813624025962008 0.4178317330201219
vt 0.6903221316645131 0.41741209374110577
vt 0.6897596837080657 0.42034862833585707
vt 0.6816473832917772 0.4207999163529189
vt 0.572492802868962 0.5234375
vt 0.5643999562380825 0.5226870595745452
vt 0.5663655609966934 0.520434224328393
vt 0.572492802868962 0.5204618759681529
vt 0.67669765625 0.41015625
vt 0.67669765625 0.393798828125
vt 0.6796875 0.393798828125
vt 0.67893984375 0.408203125
vt 0.6469679029050263 0.45719612433662093
vt 0.647372210151314 0.44277503568639653
vt 0.6503619891312269 0.44279471564282047
vt 0.6498343808642023 0.45642317864659243
vt 0.6533501049712793 0.4563477158615139
vt 0.6521662899427775 0.44275581478365056
vt 0.6551516493014069 0.44259212254419567
vt 0.65625 0.45697269815844177
vt 0.645278515625 0.32617890625
vt 0.64453125 0.311771484375
vt 0.64752109375 0.311771484375
vt 0.64752109375 0.328125
vt 0.59466640625 0.380859375
vt 0.59466640625 0.364501953125
vt 0.59765625 0.364501953125
vt 0.596908984375 0.3828125
vt 0.6319017435668168 0.5203713882836942
vt 0.6322860710884198 0.5020466284574207
vt 0.6352758900903949 0.5020587933595155
vt 0.6347600994002591 0.5212037282099938
vt 0.6377989674974588 0.521152148330183
vt 0.6365874169769434 0.5020366699920275
vt 0.6395748172206528 0.5019158170512301
vt 0.640625 0.5202121485968415
vt 0.5643999562380825 0.5226870595745452
vt 0.5611837279626604 0.5046433119429761
vt 0.5641461303892077 0.5042391615840744
vt 0.5663569183924549 0.5204441298617216
vt 0.67669765625 0.393798828125
vt 0.67669765625 0.37890625
vt 0.6796875 0.37890625
vt 0.6796875 0.393798828125
vt 0.647372210151314 0.44277503568639653
vt 0.647470237109592 0.4278827801848052
vt 0.6504600160895049 0.427902460141229
vt 0.6503619891312269 0.44279471564282047
vt 0.6521662899427775 0.44275581478365056
vt 0.6513509297874055 0.4278855736616559
vt 0.6543362891460349 0.427721881422201
vt 0.6551516493014069 0.44259212254419567
vt 0.64453125 0.311771484375
vt 0.64453125 0.29687890625
vt 0.64752109375 0.29687890625
vt 0.64752109375 0.311771484375
vt 0.59466640625 0.364501953125
vt 0.59466640625 0.349609375
vt 0.59765625 0.349609375
vt 0.59765625 0.364501953125
vt 0.6322860710884198 0.5020466284574207
vt 0.6323466651428187 0.4871541736037104
vt 0.6353364841447937 0.48716633850580526
vt 0.6352758900903949 0.5020587933595155
vt 0.6365874169769434 0.5020366699920275
vt 0.6359854417524989 0.48715626310785975
vt 0.6389728419962083 0.4870354101670624
vt 0.6395748172206528 0.5019158170512301
vt 0.5611837279626604 0.5046433119429761
vt 0.5591706325311048 0.4898874205774002
vt 0.5621330349576521 0.48948327021849847
vt 0.5641461303892077 0.5042391615840744
vt 0.67669765625 0.37890625
vt 0.67669765625 0.364013671875
vt 0.6796875 0.364013671875
vt 0.6796875 0.37890625
vt 0.647470237109592 0.4278827801848052
vt 0.6475682640678699 0.41299052468321373
vt 0.6505580430477829 0.41301020463963767
vt 0.6504600160895049 0.427902460141229
vt 0.6513509297874055 0.4278855736616559
vt 0.6505355696320336 0.4130153325396613
vt 0.653520928990663 0.4128516403002064
vt 0.6543362891460349 0.427721881422201
vt 0.64453125 0.29687890625
vt 0.64453125 0.281986328125
vt 0.64752109375 0.281986328125
vt 0.64752109375 0.29687890625
vt 0.59466640625 0.349609375
vt 0.59466640625 0.334716796875
vt 0.59765625 0.334716796875
vt 0.59765625 0.349609375
vt 0.6323466651428187 0.4871541736037104
vt 0.6324072591972175 0.47226171875
vt 0.6353970781991927 0.4722738836520949
vt 0.6353364841447937 0.48716633850580526
vt 0.6359854417524989 0.48715626310785975
vt 0.6353834665280544 0.47227585622369217
vt 0.6383708667717638 0.47215500328289484
vt 0.6389728419962083 0.4870354101670624
vt 0.5591706325311048 0.4898874205774002
vt 0.5571575370995492 0.4751315292118242
vt 0.5601199395260966 0.4747273788529226
vt 0.5621330349576521 0.48948327021849847
vt 0.67669765625 0.364013671875
vt 0.67669765625 0.34765625
vt 0.678961328125 0.349609375
vt 0.679659375 0.364013671875
vt 0.6475682640678699 0.41299052468321373
vt 0.6473526390678699 0.3985651340582138
vt 0.6502303734428698 0.3993752903082137
vt 0.6505354515678698 0.4130100559332138
vt 0.6505355696320336 0.4130153325396613
vt 0.6502303734428698 0.3993752903082137
vt 0.6530691308686789 0.3984375
vt 0.6534957450459801 0.41285302117795286
vt 0.64453125 0.281986328125
vt 0.6452893340768538 0.2675793219814949
vt 0.647561769067039 0.26563652430034446
vt 0.6474816760256631 0.281986328125
vt 0.59466640625 0.334716796875
vt 0.59466640625 0.318359375
vt 0.5969296875 0.31640625
vt 0.597627734375 0.334716796875
vt 0.6324072591972175 0.47226171875
vt 0.6321705404472175 0.453934765625
vt 0.6350486654472176 0.453125
vt 0.6353834310722176 0.47227382812499996
vt 0.6353834665280544 0.47227585622369217
vt 0.6350486654472176 0.453125
vt 0.6379531171606256 0.4538334267971724
vt 0.6383580276531937 0.47215552267939676
vt 0.5571575370995492 0.4751315292118242
vt 0.5554288443026284 0.456884808713115
vt 0.5579311208562558 0.4585210474985272
vt 0.5600990495635659 0.474730228798554
vt 0.69140625 0.39154140625
vt 0.697540234375 0.39154140625
vt 0.697540234375 0.39453125
vt 0.693359375 0.39378359375000005
vt 0.5680047925892082 0.47564995663857923
vt 0.5722519071651683 0.4759596239056013
vt 0.5722519071651683 0.47894962989275625
vt 0.5687464672560358 0.47851161207307746
vt 0.6013848431123029 0.5198810773363767
vt 0.6015625 0.5234375
vt 0.5985807535118507 0.5232184155413133
vt 0.5985807535118507 0.5189939140907154
vt 0.7128896877518117 0.4758153283204778
vt 0.7086973057428223 0.4765625
vt 0.7086973057428223 0.47357282109890697
vt 0.7148146091366742 0.4735731325341278
vt 0.716796875 0.483458203125
vt 0.710662890625 0.483458203125
vt 0.710662890625 0.48046875
vt 0.71875 0.48121601562500005
vt 0.6894877156848908 0.456552514443785
vt 0.6813663057009064 0.4562430312316208
vt 0.6813663057009064 0.45325350072783654
vt 0.6903221316645131 0.4536913016202033
vt 0.578125 0.49725072491524036
vt 0.578125 0.48828125
vt 0.5811112325102266 0.48842711982117326
vt 0.5810240687284133 0.49655138857640113
vt 0.6933536044333857 0.5124662947508845
vt 0.701446511704439 0.51171875
vt 0.701446511704439 0.5147085767551614
vt 0.6953172304634594 0.5147085550649904
vt 0.697540234375 0.39154140625
vt 0.703125 0.39154140625
vt 0.703125 0.39453125
vt 0.697540234375 0.39453125
vt 0.5722519071651683 0.4759596239056013
vt 0.5778366727901683 0.4759596239056013
vt 0.5778366727901683 0.4789494676556013
vt 0.5722519071651683 0.4789494676556013
vt 0.5725152735735828 0.48146402608826344
vt 0.57795271726526 0.4801897368016329
vt 0.5786349170414277 0.48310071071336946
vt 0.5731974733497505 0.484375
vt 0.7086973057428223 0.4765625
vt 0.7031125401178223 0.4765625
vt 0.7031125401178223 0.47357265625
vt 0.7086973057428223 0.47357265625
vt 0.710662890625 0.483458203125
vt 0.705078125 0.483458203125
vt 0.705078125 0.48046875
vt 0.710662890625 0.48046875
vt 0.6813663057009064 0.4562430312316208
vt 0.6757815400759064 0.4562430312316208
vt 0.6757815400759064 0.4532531874816208
vt 0.6813663057009064 0.4532531874816208
vt 0.6813186058956184 0.4521948961998056
vt 0.6757594260917746 0.4527288690406108
vt 0.6754735599573742 0.44975272284080536
vt 0.6810327397612179 0.44921875
vt 0.701446511704439 0.51171875
vt 0.7070312773294389 0.51171875
vt 0.7070312773294389 0.51470859375
vt 0.701446511704439 0.51470859375
vt 0.703125 0.39154140625
vt 0.708709765625 0.39154140625
vt 0.708709765625 0.39453125
vt 0.703125 0.39453125
vt 0.5778366727901683 0.4759596239056013
vt 0.5834214384151682 0.4759596239056013
vt 0.5834214384151682 0.4789494676556013
vt 0.5778366727901683 0.4789494676556013
vt 0.57795271726526 0.4801897368016329
vt 0.5833901609569372 0.47891544751500237
vt 0.5840723607331049 0.4818264214267389
vt 0.5786349170414277 0.48310071071336946
vt 0.7031125401178223 0.4765625
vt 0.6975277744928223 0.4765625
vt 0.6975277744928223 0.47357265625
vt 0.7031125401178223 0.47357265625
vt 0.705078125 0.483458203125
vt 0.699493359375 0.483458203125
vt 0.699493359375 0.48046875
vt 0.705078125 0.48046875
vt 0.6757815400759064 0.4562430312316208
vt 0.6701967744509064 0.4562430312316208
vt 0.6701967744509064 0.4532531874816208
vt 0.6757815400759064 0.4532531874816208
vt 0.6757594260917746 0.4527288690406108
vt 0.670200246287931 0.4532628418814162
vt 0.6699143801535304 0.4502866956816107
vt 0.6754735599573742 0.44975272284080536
vt 0.7070312773294389 0.51171875
vt 0.7126160429544389 0.51171875
vt 0.7126160429544389 0.51470859375
vt 0.7070312773294389 0.51470859375
vt 0.708709765625 0.39154140625
vt 0.71484375 0.39154140625
vt 0.712890625 0.393805078125
vt 0.708709765625 0.39450312499999995
vt 0.5834214384151682 0.4759596239056013
vt 0.5876679530193157 0.4756461979205425
vt 0.5869314944258526 0.47854358332467084
vt 0.5834214384151682 0.47891216316836216
vt 0.5833901609569372 0.47891544751500237
vt 0.5869314944258526 0.47854358332467084
vt 0.5882452074107918 0.48122963686025677
vt 0.5840599075186251 0.48177328305916045
vt 0.6975277744928223 0.4765625
vt 0.6933392567600392 0.4757938381811798
vt 0.6914353908633258 0.4734886095635352
vt 0.6975277744928223 0.47365424493204544
vt 0.699493359375 0.483458203125
vt 0.693359375 0.483458203125
vt 0.69140625 0.48119453125
vt 0.699493359375 0.48049648437500003
vt 0.6701967744509064 0.4562430312316208
vt 0.6620751733922325 0.4565534055800753
vt 0.6612403683354869 0.4536824881335929
vt 0.6701967744509064 0.4532630044889209
vt 0.670200246287931 0.4532628418814162
vt 0.6612403683354869 0.4536824881335929
vt 0.6618028638654053 0.45074628459974997
vt 0.6699151461085497 0.45029467002290424
vt 0.7126160429544389 0.51171875
vt 0.7207088955666143 0.5124696027222404
vt 0.7187432847523574 0.5147224326848108
vt 0.7126160429544389 0.5146947645749381
vt 0.67877109375 0.28125
vt 0.67877109375 0.297607421875
vt 0.67578125 0.297607421875
vt 0.67652890625 0.283203125
vt 0.669432552728761 0.4646788738971228
vt 0.6690282454824734 0.4790999625473471
vt 0.6660384665025605 0.4790802825909233
vt 0.666566074769585 0.4654518195871513
vt 0.6630560417128555 0.46552730410235765
vt 0.664238074389203 0.47911936030015845
vt 0.6612526935908446 0.47928266106012873
vt 0.66015625 0.4649023315818024
vt 0.671127734375 0.27930097743003135
vt 0.671875 0.29370839930503134
vt 0.66888515625 0.29370839930503134
vt 0.66888515625 0.27735488368003136
vt 0.66314609375 0.345703125
vt 0.66314609375 0.362060546875
vt 0.66015625 0.362060546875
vt 0.660903515625 0.34375
vt 0.5634107706333451 0.3155665023380724
vt 0.5630264447010943 0.33389087154257935
vt 0.5600366256991193 0.33387870664048447
vt 0.560552416389255 0.31473377179000617
vt 0.5575135482920553 0.314785351669817
vt 0.5587250988125707 0.33390083000797255
vt 0.5557376985688613 0.3340216829487699
vt 0.5546875 0.3157249610974042
vt 0.6008211556973716 0.4569003044726889
vt 0.5990634894902903 0.4751443684254998
vt 0.596101598297509 0.4747364882819055
vt 0.5983327890124484 0.4585343165611633
vt 0.67877109375 0.297607421875
vt 0.67877109375 0.3125
vt 0.67578125 0.3125
vt 0.67578125 0.297607421875
vt 0.6690282454824734 0.4790999625473471
vt 0.6689302185241954 0.49399221804893856
vt 0.6659404395442825 0.49397253809251473
vt 0.6660384665025605 0.4790802825909233
vt 0.664238074389203 0.47911936030015845
vt 0.6650514845634737 0.4939897082146365
vt 0.6620661037651153 0.4941530089746068
vt 0.6612526935908446 0.47928266106012873
vt 0.671875 0.29370839930503134
vt 0.671875 0.30860097743003134
vt 0.66888515625 0.30860097743003134
vt 0.66888515625 0.29370839930503134
vt 0.66314609375 0.362060546875
vt 0.66314609375 0.376953125
vt 0.66015625 0.376953125
vt 0.66015625 0.362060546875
vt 0.5630264447010943 0.33389087154257935
vt 0.5629658506466955 0.34878332639628973
vt 0.5599760316447204 0.34877116149419474
vt 0.5600366256991193 0.33387870664048447
vt 0.5587250988125707 0.33390083000797255
vt 0.5593270740370152 0.34878123689214025
vt 0.5563396737933058 0.3489020898329376
vt 0.5557376985688613 0.3340216829487699
vt 0.5990634894902903 0.4751443684254998
vt 0.597031815793592 0.4898977133072333
vt 0.5940699246008107 0.48948983316363903
vt 0.596101598297509 0.4747364882819055
vt 0.67877109375 0.3125
vt 0.67877109375 0.327392578125
vt 0.67578125 0.327392578125
vt 0.67578125 0.3125
vt 0.6689302185241954 0.49399221804893856
vt 0.6688321915659174 0.50888447355053
vt 0.6658424125860045 0.5088647935941061
vt 0.6659404395442825 0.49397253809251473
vt 0.6650514845634737 0.4939897082146365
vt 0.6658648947377445 0.5088600561291146
vt 0.662879513939386 0.5090233568890848
vt 0.6620661037651153 0.4941530089746068
vt 0.671875 0.30860097743003134
vt 0.671875 0.32349355555503134
vt 0.66888515625 0.32349355555503134
vt 0.66888515625 0.30860097743003134
vt 0.66314609375 0.376953125
vt 0.66314609375 0.391845703125
vt 0.66015625 0.391845703125
vt 0.66015625 0.376953125
vt 0.5629658506466955 0.34878332639628973
vt 0.5629052565922965 0.36367578125
vt 0.5599154375903215 0.3636636163479051
vt 0.5599760316447204 0.34877116149419474
vt 0.5593270740370152 0.34878123689214025
vt 0.5599290492614597 0.36366164377630783
vt 0.5569416490177503 0.36378249671710516
vt 0.5563396737933058 0.3489020898329376
vt 0.597031815793592 0.4898977133072333
vt 0.5950001420968937 0.5046510581889668
vt 0.5920382509041123 0.5042431780453727
vt 0.5940699246008107 0.48948983316363903
vt 0.67877109375 0.327392578125
vt 0.67877109375 0.34375
vt 0.676507421875 0.341796875
vt 0.675809375 0.327392578125
vt 0.6688321915659174 0.50888447355053
vt 0.6690478165659174 0.5233098641755299
vt 0.6661700821909174 0.52249970792553
vt 0.6658650040659174 0.50886494230053
vt 0.6658648947377445 0.5088600561291146
vt 0.6661700821909174 0.52249970792553
vt 0.663331325348596 0.5234375
vt 0.6629047022020512 0.5090219790874866
vt 0.671875 0.32349355555503134
vt 0.6711169159231462 0.33790056169853644
vt 0.6688444790194231 0.33984375
vt 0.6689245739743369 0.32349355555503134
vt 0.66314609375 0.391845703125
vt 0.66314609375 0.408203125
vt 0.6608828125 0.41015625
vt 0.660184765625 0.391845703125
vt 0.5629052565922965 0.36367578125
vt 0.5631419753422966 0.382002734375
vt 0.5602638503422965 0.3828125
vt 0.5599290847172965 0.36366367187500004
vt 0.5599290492614597 0.36366164377630783
vt 0.5602638503422965 0.3828125
vt 0.557359384888144 0.38210368281957674
vt 0.5569544881363204 0.36378197732060324
vt 0.5950001420968937 0.5046510581889668
vt 0.5917552413900152 0.5226899552491155
vt 0.5897855343578164 0.5204407510518432
vt 0.5920591372615778 0.5042460542923134
vt 0.71484375 0.377989453125
vt 0.708709765625 0.377989453125
vt 0.708709765625 0.375
vt 0.712890625 0.37574726562500005
vt 0.7054328363640119 0.34075534819540587
vt 0.701185362263123 0.3404458336690668
vt 0.701185362263123 0.33745582768191185
vt 0.7046908021722554 0.33789384550159063
vt 0.5822089466293695 0.43324363416910994
vt 0.58203125 0.4296875
vt 0.5859375 0.4299067618333805
vt 0.5859375 0.43413096422001196
vt 0.6933601061495557 0.4069971716795222
vt 0.6975524881585451 0.40625
vt 0.6975524881585451 0.40923967890109303
vt 0.6914351847646932 0.4092393674658722
vt 0.693359375 0.49701015625
vt 0.699493359375 0.49701015625
vt 0.699493359375 0.5
vt 0.69140625 0.49925234375000005
vt 0.6620745089247217 0.4262602729930577
vt 0.6701960036363575 0.42657013753069395
vt 0.6701960036363575 0.4295596680344782
vt 0.661240558998223 0.42912178241446
vt 0.57421875 0.49103052508475964
vt 0.57421875 0.5
vt 0.5703125 0.49985413017882674
vt 0.5703996637818133 0.49172986142359887
vt 0.5917605884530901 0.4562833146729308
vt 0.5836676750067176 0.45703125
vt 0.5836676750067176 0.45404142324483865
vt 0.5897969562476971 0.45404144493500953
vt 0.708709765625 0.377989453125
vt 0.703125 0.377989453125
vt 0.703125 0.375
vt 0.708709765625 0.375
vt 0.701185362263123 0.3404458336690668
vt 0.695600596638123 0.3404458336690668
vt 0.695600596638123 0.3374559899190668
vt 0.701185362263123 0.3374559899190668
vt 0.7009218989809888 0.3349422747674473
vt 0.6954843602953088 0.3362161586428124
vt 0.6948023775589275 0.3333051338753651
vt 0.7002399162446075 0.33203125
vt 0.6975524881585451 0.40625
vt 0.7031372537835452 0.40625
vt 0.7031372537835452 0.40923984375
vt 0.6975524881585451 0.40923984375
vt 0.699493359375 0.49701015625
vt 0.705078125 0.49701015625
vt 0.705078125 0.5
vt 0.699493359375 0.5
vt 0.6701960036363575 0.42657013753069395
vt 0.6757807692613576 0.42657013753069395
vt 0.6757807692613576 0.42955959065569393
vt 0.6701960036363575 0.42955959065569393
vt 0.67024418776283 0.43061798587999867
vt 0.6758033801871942 0.43008414444748033
vt 0.6760891386318373 0.43305990856748167
vt 0.6705299462074731 0.43359375
vt 0.5836676750067176 0.45703125
vt 0.5780829093817176 0.45703125
vt 0.5780829093817176 0.45404140625
vt 0.5836676750067176 0.45404140625
vt 0.703125 0.377989453125
vt 0.697540234375 0.377989453125
vt 0.697540234375 0.375
vt 0.703125 0.375
vt 0.695600596638123 0.3404458336690668
vt 0.690015831013123 0.3404458336690668
vt 0.690015831013123 0.3374559899190668
vt 0.695600596638123 0.3374559899190668
vt 0.6954843602953088 0.3362161586428124
vt 0.6900468216096288 0.3374900425181776
vt 0.6893648388732475 0.3345790177507302
vt 0.6948023775589275 0.3333051338753651
vt 0.7031372537835452 0.40625
vt 0.7087220194085452 0.40625
vt 0.7087220194085452 0.40923984375
vt 0.7031372537835452 0.40923984375
vt 0.705078125 0.49701015625
vt 0.710662890625 0.49701015625
vt 0.710662890625 0.5
vt 0.705078125 0.5
vt 0.6757807692613576 0.42657013753069395
vt 0.6813655348863575 0.42657013753069395
vt 0.6813655348863575 0.42955959065569393
vt 0.6757807692613576 0.42955959065569393
vt 0.6758033801871942 0.43008414444748033
vt 0.6813625726115584 0.429550303014962
vt 0.6816483310562015 0.43252606713496333
vt 0.6760891386318373 0.43305990856748167
vt 0.5780829093817176 0.45703125
vt 0.5724981437567176 0.45703125
vt 0.5724981437567176 0.45404140625
vt 0.5780829093817176 0.45404140625
vt 0.697540234375 0.377989453125
vt 0.69140625 0.377989453125
vt 0.693359375 0.375726171875
vt 0.697540234375 0.37502812500000005
vt 0.690015831013123 0.3404458336690668
vt 0.6857690018314518 0.34075902807504155
vt 0.686505460424915 0.33786164267091334
vt 0.690015831013123 0.33749329440630593
vt 0.6900468216096288 0.3374900425181776
vt 0.686505460424915 0.33786164267091334
vt 0.6851921636359881 0.3351759996749053
vt 0.6893772881257749 0.33463215704665417
vt 0.7087220194085452 0.40625
vt 0.7129106401920493 0.40701810007261263
vt 0.7148148152353068 0.4093230733342603
vt 0.7087220194085452 0.40915827644824454
vt 0.710662890625 0.49701015625
vt 0.716796875 0.49701015625
vt 0.71875 0.4992734375
vt 0.710662890625 0.49997148437500005
vt 0.6813655348863575 0.42657013753069395
vt 0.6894871359450314 0.42625976318223946
vt 0.690321941001777 0.42913068062872184
vt 0.6813655348863575 0.4295501642733939
vt 0.6813625726115584 0.429550303014962
vt 0.690321941001777 0.42913068062872184
vt 0.6897595418414906 0.43206722456920565
vt 0.6816476026290824 0.43251848161185535
vt 0.5724981437567176 0.45703125
vt 0.564405297125838 0.4562808095745451
vt 0.5663709018844489 0.45402797432839315
vt 0.5724981437567176 0.45405562596815285
vt 0.68451015625 0.5234375
vt 0.68451015625 0.507080078125
vt 0.6875 0.507080078125
vt 0.686752734375 0.521484375
vt 0.6469691708476784 0.39079012141008296
vt 0.6473753791400473 0.37636869549260255
vt 0.6503651555033372 0.3763887690305867
vt 0.6498357531570762 0.39001716246064244
vt 0.6533502052603651 0.3899410811004599
vt 0.6521685918123756 0.37634938034732013
vt 0.6551539773900422 0.3761861669836686
vt 0.65625 0.3905665285539347
vt 0.67652890625 0.521491796875
vt 0.67578125 0.507083984375
vt 0.67877109375 0.507083984375
vt 0.67877109375 0.5234375
vt 0.66107265625 0.337890625
vt 0.66107265625 0.321533203125
vt 0.6640625 0.321533203125
vt 0.66331484375 0.33984375
vt 0.631901745156169 0.4461522476619276
vt 0.6322860710884198 0.42782787845742065
vt 0.6352758900903949 0.42784004335951553
vt 0.6347600994002591 0.44698497820999383
vt 0.6377989517079447 0.4469330080244286
vt 0.6365874169769434 0.42781791999202745
vt 0.6395748172206528 0.4276970670512301
vt 0.640625 0.4459933985968415
vt 0.564405297125838 0.4562808095745451
vt 0.5611878986419293 0.43823728674907503
vt 0.5641502661774703 0.4378328807231723
vt 0.5663624527333264 0.45403765813963015
vt 0.68451015625 0.507080078125
vt 0.68451015625 0.4921875
vt 0.6875 0.4921875
vt 0.6875 0.507080078125
vt 0.6473753791400473 0.37636869549260255
vt 0.6474753665499828 0.3614764530245562
vt 0.6504651429132726 0.3614965265625404
vt 0.6503651555033372 0.3763887690305867
vt 0.6521685918123756 0.37634938034732013
vt 0.6513556169640331 0.3614790086268421
vt 0.6543410025416997 0.3613157952631907
vt 0.6551539773900422 0.3761861669836686
vt 0.67578125 0.507083984375
vt 0.67578125 0.49219140625
vt 0.67877109375 0.49219140625
vt 0.67877109375 0.507083984375
vt 0.66107265625 0.321533203125
vt 0.66107265625 0.306640625
vt 0.6640625 0.306640625
vt 0.6640625 0.321533203125
vt 0.6322860710884198 0.42782787845742065
vt 0.6323466651428187 0.4129354236037104
vt 0.6353364841447937 0.41294758850580526
vt 0.6352758900903949 0.42784004335951553
vt 0.6365874169769434 0.42781791999202745
vt 0.6359854417524989 0.41293751310785975
vt 0.6389728419962083 0.4128166601670624
vt 0.6395748172206528 0.4276970670512301
vt 0.5611878986419293 0.43823728674907503
vt 0.5591735297188116 0.4234815691775434
vt 0.5621358972543526 0.4230771631516407
vt 0.5641502661774703 0.4378328807231723
vt 0.68451015625 0.4921875
vt 0.68451015625 0.477294921875
vt 0.6875 0.477294921875
vt 0.6875 0.4921875
vt 0.6474753665499828 0.3614764530245562
vt 0.6475753539599183 0.3465842105565098
vt 0.6505651303232082 0.34660428409449406
vt 0.6504651429132726 0.3614965265625404
vt 0.6513556169640331 0.3614790086268421
vt 0.6505426421156906 0.3466086369063641
vt 0.6535280276933572 0.3464454235427127
vt 0.6543410025416997 0.3613157952631907
vt 0.67578125 0.49219140625
vt 0.67578125 0.477298828125
vt 0.67877109375 0.477298828125
vt 0.67877109375 0.49219140625
vt 0.66107265625 0.306640625
vt 0.66107265625 0.291748046875
vt 0.6640625 0.291748046875
vt 0.6640625 0.306640625
vt 0.6323466651428187 0.4129354236037104
vt 0.6324072591972175 0.39804296875
vt 0.6353970781991927 0.3980551336520949
vt 0.6353364841447937 0.41294758850580526
vt 0.6359854417524989 0.41293751310785975
vt 0.6353834665280544 0.39805710622369217
vt 0.6383708667717638 0.39793625328289484
vt 0.6389728419962083 0.4128166601670624
vt 0.5591735297188116 0.4234815691775434
vt 0.5571591607956938 0.4087258516060118
vt 0.560121528331235 0.4083214455801091
vt 0.5621358972543526 0.4230771631516407
vt 0.68451015625 0.477294921875
vt 0.68451015625 0.4609375
vt 0.686773828125 0.462890625
vt 0.687471875 0.477294921875
vt 0.6475753539599183 0.3465842105565098
vt 0.6473597289599183 0.33215881993150986
vt 0.6502378539599183 0.3329689761815098
vt 0.6505425414599183 0.3466041324315099
vt 0.6505426421156906 0.3466086369063641
vt 0.6502378539599183 0.3329689761815098
vt 0.6530770285002855 0.33203125
vt 0.653502839390368 0.34644680060693056
vt 0.67578125 0.477298828125
vt 0.6765374266599572 0.4628917217414993
vt 0.6788096044142455 0.46094862321918517
vt 0.6787316741379832 0.477298828125
vt 0.66107265625 0.291748046875
vt 0.66107265625 0.275390625
vt 0.663336328125 0.2734375
vt 0.664034375 0.291748046875
vt 0.6324072591972175 0.39804296875
vt 0.6321705404472175 0.379716015625
vt 0.6350486654472176 0.37890625
vt 0.6353834310722175 0.39805507812499996
vt 0.6353834665280544 0.39805710622369217
vt 0.6350486654472176 0.37890625
vt 0.6379531309013702 0.37961506718042326
vt 0.6383580276531937 0.39793677267939676
vt 0.5571591607956938 0.4087258516060118
vt 0.5554288932320703 0.39047928036913526
vt 0.5579313109910639 0.39211530319085686
vt 0.560100638614745 0.40832429732862663
vt 0.69140625 0.38372890625
vt 0.697540234375 0.38372890625
vt 0.697540234375 0.38671875
vt 0.693359375 0.38597148437499995
vt 0.6851921636359881 0.3037770106909963
vt 0.6894396377368769 0.30408652521733526
vt 0.6894396377368769 0.3070765312044903
vt 0.6859341978277446 0.3066385133848114
vt 0.5974785533706305 0.30894386583089006
vt 0.59765625 0.3125
vt 0.5946745165497983 0.3122807381666195
vt 0.5946745165497983 0.30805653577998804
vt 0.7128898998219161 0.4680024378780919
vt 0.708697505869983 0.46875
vt 0.708697505869983 0.46576032109890697
vt 0.7148148212067785 0.4657602420917418
vt 0.716796875 0.49127109375
vt 0.710662890625 0.49127109375
vt 0.710662890625 0.48828125
vt 0.71875 0.48902890624999995
vt 0.6894879910752783 0.4448343088931591
vt 0.6813664963636425 0.44452444435552285
vt 0.6813664963636425 0.4415349138517385
vt 0.690321941001777 0.4419727994717567
vt 0.578125 0.5128757249152405
vt 0.578125 0.50390625
vt 0.5811112325102266 0.5040521198211733
vt 0.5810240687284133 0.5121763885764011
vt 0.693353601345726 0.5202791853270692
vt 0.7014465147920985 0.51953125
vt 0.7014465147920985 0.5225210767551614
vt 0.695317233551119 0.5225210550649904
vt 0.697540234375 0.38372890625
vt 0.703125 0.38372890625
vt 0.703125 0.38671875
vt 0.697540234375 0.38671875
vt 0.6894396377368769 0.30408652521733526
vt 0.695024403361877 0.30408652521733526
vt 0.695024403361877 0.30707636896733526
vt 0.6894396377368769 0.30707636896733526
vt 0.6897028239248694 0.30958890106039905
vt 0.6951405011576203 0.30831560871431174
vt 0.6958221672146219 0.3112267076539128
vt 0.690384489981871 0.3125
vt 0.708697505869983 0.46875
vt 0.703112740244983 0.46875
vt 0.703112740244983 0.46576015625
vt 0.708697505869983 0.46576015625
vt 0.710662890625 0.49127109375
vt 0.705078125 0.49127109375
vt 0.705078125 0.48828125
vt 0.710662890625 0.48828125
vt 0.6813664963636425 0.44452444435552285
vt 0.6757817307386424 0.44452444435552285
vt 0.6757817307386424 0.44153460060552285
vt 0.6813664963636425 0.44153460060552285
vt 0.6813184181373436 0.4404761414488031
vt 0.6757592472079553 0.44101020667330826
vt 0.6754733316152881 0.43803406522450516
vt 0.6810325025446764 0.4375
vt 0.7014465147920985 0.51953125
vt 0.7070312804170985 0.51953125
vt 0.7070312804170985 0.522520703125
vt 0.7014465147920985 0.522520703125
vt 0.703125 0.38372890625
vt 0.708709765625 0.38372890625
vt 0.708709765625 0.38671875
vt 0.703125 0.38671875
vt 0.695024403361877 0.30408652521733526
vt 0.700609168986877 0.30408652521733526
vt 0.700609168986877 0.30707636896733526
vt 0.695024403361877 0.30707636896733526
vt 0.6951405011576203 0.30831560871431174
vt 0.7005781783903712 0.30704231636822454
vt 0.7012598444473728 0.3099534153078256
vt 0.6958221672146219 0.3112267076539128
vt 0.703112740244983 0.46875
vt 0.6975279746199831 0.46875
vt 0.6975279746199831 0.46576015625
vt 0.703112740244983 0.46576015625
vt 0.705078125 0.49127109375
vt 0.699493359375 0.49127109375
vt 0.699493359375 0.48828125
vt 0.705078125 0.48828125
vt 0.6757817307386424 0.44452444435552285
vt 0.6701969651136425 0.44452444435552285
vt 0.6701969651136425 0.44153460060552285
vt 0.6757817307386424 0.44153460060552285
vt 0.6757592472079553 0.44101020667330826
vt 0.670200076278567 0.4415442718978134
vt 0.6699141606858998 0.43856813044901033
vt 0.6754733316152881 0.43803406522450516
vt 0.7070312804170985 0.51953125
vt 0.7126160460420985 0.51953125
vt 0.7126160460420985 0.522520703125
vt 0.7070312804170985 0.522520703125
vt 0.708709765625 0.38372890625
vt 0.71484375 0.38372890625
vt 0.712890625 0.385992578125
vt 0.708709765625 0.38669062499999995
vt 0.700609168986877 0.30408652521733526
vt 0.7048559981685482 0.3037733308113605
vt 0.704119539575085 0.3066707162154888
vt 0.700609168986877 0.3070390644800962
vt 0.7005781783903712 0.30704231636822454
vt 0.704119539575085 0.3066707162154888
vt 0.7054328363640119 0.30935635921149685
vt 0.7012473496718249 0.30990005556154754
vt 0.6975279746199831 0.46875
vt 0.6933393538364789 0.46798189992738737
vt 0.6914351787932215 0.4656769266657397
vt 0.6975279746199831 0.46584172355175546
vt 0.699493359375 0.49127109375
vt 0.693359375 0.49127109375
vt 0.69140625 0.489007421875
vt 0.699493359375 0.48830937500000005
vt 0.6701969651136425 0.44452444435552285
vt 0.6620754714287723 0.4448344431260801
vt 0.661240558998223 0.44196390125749496
vt 0.6701969651136425 0.4415444176128228
vt 0.670200076278567 0.4415442718978134
vt 0.661240558998223 0.44196390125749485
vt 0.6618030057335343 0.43902768837637274
vt 0.6699149267734386 0.438576104777574
vt 0.7126160460420985 0.51953125
vt 0.720708898654274 0.5202821027222404
vt 0.718743287840017 0.5225349326848108
vt 0.7126160460420985 0.5225072645749381
vt 0.68658359375 0.34765625
vt 0.68658359375 0.364013671875
vt 0.68359375 0.364013671875
vt 0.684341015625 0.349609375
vt 0.6538178495199114 0.46467941121828216
vt 0.6534116438501631 0.47910044651956674
vt 0.6504218674868733 0.47908037298158246
vt 0.6509512698331342 0.46545197955152673
vt 0.6474311053562057 0.4655276489724407
vt 0.6486145224848204 0.47911958470035776
vt 0.6456291583354223 0.4792831895441213
vt 0.64453125 0.4649029718218427
vt 0.65550234375 0.26758222742534443
vt 0.65625 0.28199003992534444
vt 0.65326015625 0.28199003992534444
vt 0.65326015625 0.26563652430034446
vt 0.67095859375 0.345703125
vt 0.67095859375 0.362060546875
vt 0.66796875 0.362060546875
vt 0.66871640625 0.34375
vt 0.6376295287622219 0.3077543929630724
vt 0.6372452028299711 0.32607876216757936
vt 0.6342553838279961 0.3260665972654845
vt 0.6347711729287795 0.3069220530367728
vt 0.6317322979570589 0.3069732429561275
vt 0.6329438395031083 0.3260883305565825
vt 0.6299564393024865 0.32620918456246906
vt 0.62890625 0.3079128533912775
vt 0.6008211067679297 0.3904929205091596
vt 0.599064657250089 0.40873708563522615
vt 0.5961027302159314 0.4083294658445624
vt 0.5983324967452363 0.39212709806390633
vt 0.68658359375 0.364013671875
vt 0.68658359375 0.37890625
vt 0.68359375 0.37890625
vt 0.68359375 0.364013671875
vt 0.6534116438501631 0.47910044651956674
vt 0.6533116564402276 0.49399268898761306
vt 0.6503218800769377 0.4939726154496289
vt 0.6504218674868733 0.47908037298158246
vt 0.6486145224848204 0.47911958470035776
vt 0.6494294473173896 0.4939898496854376
vt 0.6464440831679915 0.4941534545292011
vt 0.6456291583354223 0.4792831895441213
vt 0.65625 0.28199003992534444
vt 0.65625 0.29688261805034444
vt 0.65326015625 0.29688261805034444
vt 0.65326015625 0.28199003992534444
vt 0.67095859375 0.362060546875
vt 0.67095859375 0.376953125
vt 0.66796875 0.376953125
vt 0.66796875 0.362060546875
vt 0.6372452028299711 0.32607876216757936
vt 0.6371846087755721 0.34097121702128974
vt 0.6341947897735971 0.34095905211919475
vt 0.6342553838279961 0.3260665972654845
vt 0.6329438395031083 0.3260883305565825
vt 0.6335458200328221 0.34096873722612864
vt 0.6305584198322003 0.3410895912320153
vt 0.6299564393024865 0.32620918456246906
vt 0.599064657250089 0.40873708563522615
vt 0.5970342803858278 0.4234906090448495
vt 0.5940723533516703 0.42308298925418575
vt 0.5961027302159314 0.4083294658445624
vt 0.68658359375 0.37890625
vt 0.68658359375 0.393798828125
vt 0.68359375 0.393798828125
vt 0.68359375 0.37890625
vt 0.6533116564402276 0.49399268898761306
vt 0.653211669030292 0.5088849314556594
vt 0.6502218926670021 0.5088648579176751
vt 0.6503218800769377 0.4939726154496289
vt 0.6494294473173896 0.4939898496854376
vt 0.6502443721499588 0.5088601146705174
vt 0.6472590080005608 0.5090237195142809
vt 0.6464440831679915 0.4941534545292011
vt 0.65625 0.29688261805034444
vt 0.65625 0.31177519617534444
vt 0.65326015625 0.31177519617534444
vt 0.65326015625 0.29688261805034444
vt 0.67095859375 0.376953125
vt 0.67095859375 0.391845703125
vt 0.66796875 0.391845703125
vt 0.66796875 0.376953125
vt 0.6371846087755721 0.34097121702128974
vt 0.6371240147211733 0.355863671875
vt 0.6341341957191983 0.35585150697290513
vt 0.6341947897735971 0.34095905211919475
vt 0.6335458200328221 0.34096873722612864
vt 0.6341478005625358 0.3558491438956748
vt 0.6311604003619141 0.3559699979015615
vt 0.6305584198322003 0.3410895912320153
vt 0.5970342803858278 0.4234906090448495
vt 0.5950039035215666 0.4382441324544727
vt 0.5920419764874091 0.43783651266380896
vt 0.5940723533516703 0.42308298925418575
vt 0.68658359375 0.393798828125
vt 0.68658359375 0.41015625
vt 0.684319921875 0.408203125
vt 0.683621875 0.393798828125
vt 0.653211669030292 0.5088849314556594
vt 0.653427294030292 0.5233103220806594
vt 0.650549169030292 0.5225001658306594
vt 0.650244481530292 0.5088650095806593
vt 0.6502443721499588 0.5088601146705174
vt 0.650549169030292 0.5225001658306594
vt 0.6477099766954089 0.5234375
vt 0.6472841919856578 0.5090223393737885
vt 0.65625 0.31177519617534444
vt 0.6554919159231462 0.3261822023188494
vt 0.653219480932961 0.328125
vt 0.6532995739743369 0.31177519617534444
vt 0.67095859375 0.391845703125
vt 0.67095859375 0.408203125
vt 0.668694921875 0.41015625
vt 0.667996875 0.391845703125
vt 0.6371240147211733 0.355863671875
vt 0.6373607334711733 0.374190234375
vt 0.6344826084711733 0.375
vt 0.6341478428461733 0.35585156250000005
vt 0.6341478005625358 0.3558491438956748
vt 0.6344826084711733 0.375
vt 0.6315781565051921 0.3742915742383436
vt 0.631173239480299 0.355969478500482
vt 0.5950039035215666 0.4382441324544727
vt 0.5917605884530901 0.4562833146729308
vt 0.589790683722602 0.45403428362234
vt 0.592062863097617 0.43783938707481995
vt 0 1
vt 0 1
vt 0 1
vt 0 1
vt 0 1
vt 0 1
vt 0 1
vt 0 1
vt 0 0.5625
vt 0 0.5625
vt 0 1
vt 0 1
vt 0 0.5625
vt 0 1
vt 0 0.5625
vt 0 1
vt 0.4375 0.765625
vt 0.4375 1
vt 0 1
vt 0 0.765625
vt 0.4375 0.76171875
vt 0 0.76171875
vt 0 0.52734375
vt 0.4375 0.52734375
vt 0 1
vt 0 1
vt 0 1
vt 0 1
vt 0 1
vt 0 1
vt 0 1
vt 0 1
vt 0 0.5625
vt 0 0.5625
vt 0 1
vt 0 1
vt 0 0.5625
vt 0 1
vt 0 0.5625
vt 0 1
vt 0.87890625 0.765625
vt 0.87890625 1
vt 0.44140625 1
vt 0.44140625 0.765625
vt 0.87890625 0.76171875
vt 0.44140625 0.76171875
vt 0.44140625 0.52734375
vt 0.87890625 0.52734375
vn 2.220446049250313e-16 0 -1
vn -2.220446049250313e-16 0 1
vn 0 1 0
vn 0 -1 0
vn 1 0 2.220446049250313e-16
vn -1 0 -2.220446049250313e-16
vn 0.9238816352837772 -0.3826783557837753 2.0514293270407817e-16
vn 0.3767058200477257 -0.909462434408643 -0.175985242397411
vn -0.3651568325232215 -0.8815802787582211 -0.29912656145214717
vn -0.9213589938745166 -0.38163345973880586 -0.07384786262531778
vn -0.9238816352837772 0.3826783557837753 -2.0514293270407817e-16
vn -0.3810543168069254 0.9199607974234192 -0.09203118410014155
vn 0.3800054075438392 0.9174284670979695 -0.11798685518188266
vn 0.9232053834174382 0.38239824744259493 -0.03825441650179694
vn 0.9238816352837772 -0.3826783557837753 2.0514293270407817e-16
vn 0.3826783557837753 -0.9238816352837772 8.497166432336895e-17
vn -0.3826783557837753 -0.9238816352837772 -8.497166432336895e-17
vn -0.9238816352837772 -0.3826783557837753 -2.0514293270407817e-16
vn -0.9238816352837772 0.3826783557837753 -2.0514293270407817e-16
vn -0.3826783557837753 0.9238816352837772 -8.497166432336895e-17
vn 0.3826783557837753 0.9238816352837772 8.497166432336895e-17
vn 0.9238816352837772 0.3826783557837753 2.0514293270407817e-16
vn 0.9238816352837772 -0.3826783557837753 2.0514293270407817e-16
vn 0.3826783557837753 -0.9238816352837772 8.497166432336895e-17
vn -0.3826783557837753 -0.9238816352837772 -8.497166432336895e-17
vn -0.9238816352837772 -0.3826783557837753 -2.0514293270407817e-16
vn -0.9238816352837772 0.3826783557837753 -2.0514293270407817e-16
vn -0.3826783557837753 0.9238816352837772 -8.497166432336895e-17
vn 0.3826783557837753 0.9238816352837772 8.497166432336895e-17
vn 0.9238816352837772 0.3826783557837753 2.0514293270407817e-16
vn 0.862858632050597 -0.5054453294825985 1.9159310405982776e-16
vn 0.2259214327419013 -0.9564042458347256 0.18506870285695642
vn -0.18025138789835715 -0.9314616369099669 0.3160516668611655
vn -0.8039183085491648 -0.5839082488755402 0.11298898209361054
vn -0.862858632050597 0.5054453294825985 -1.9159310405982776e-16
vn -0.305291411076244 0.9475295137261869 0.09478910771228945
vn 0.3115468938061656 0.9424687531382979 0.12120718756605077
vn 0.881680839918288 0.46950280624299817 0.04696819616433651
vn 0.9238816352837773 0 -0.382678355783775
vn 0.3821641952965006 0.05182048467766702 -0.922640322770011
vn -0.38152695549313687 0.07751473987074786 -0.9211018658839576
vn -0.9236683102721334 0.0214883291860543 -0.3825899950440599
vn -0.9238816352837773 0 0.382678355783775
vn -0.3823599259025485 0.0407863265267133 0.923112865597839
vn 0.3820948900663714 0.055200131923653174 0.9224730025430442
vn 0.9237496028564589 0.016905640037288283 0.3826236670116789
vn 0.9238816352837774 0 -0.38267835578377507
vn 0.3826783557837755 0 -0.9238816352837772
vn -0.38267835578377507 0 -0.9238816352837774
vn -0.9238816352837772 0 -0.3826783557837755
vn -0.9238816352837774 0 0.38267835578377507
vn -0.3826783557837755 0 0.9238816352837772
vn 0.38267835578377507 0 0.9238816352837774
vn 0.9238816352837772 0 0.3826783557837755
vn 0.9238816352837774 0 -0.38267835578377507
vn 0.3826783557837755 0 -0.9238816352837772
vn -0.38267835578377507 0 -0.9238816352837774
vn -0.9238816352837772 0 -0.3826783557837755
vn -0.9238816352837774 0 0.38267835578377507
vn -0.3826783557837755 0 0.9238816352837772
vn 0.38267835578377507 0 0.9238816352837774
vn 0.9238816352837772 0 0.3826783557837755
vn 0.8628586320505971 0 -0.5054453294825982
vn 0.266062211002245 -0.0540557954774601 -0.9624390218875668
vn -0.2582366141791141 -0.08101362772079236 -0.9626788889452309
vn -0.8492872496648556 -0.02960481150700311 -0.5271002966156823
vn -0.8628586320505971 0 0.5054453294825982
vn -0.29220451739293934 -0.04221393252858169 0.9554237300358578
vn 0.2959844952444666 -0.05705599802590037 0.9534871743574461
vn 0.8719327253504567 -0.02161227540434331 0.4891484764514472
vn 0.9238816352837772 0.3826783557837753 2.0514293270407817e-16
vn 0.37670582004772557 0.909462434408643 0.17598524239741117
vn -0.3651568325232216 0.8815802787582211 0.29912656145214706
vn -0.9213589938745166 0.38163345973880586 0.07384786262531737
vn -0.9238816352837772 -0.3826783557837753 -2.0514293270407817e-16
vn -0.3810543168069254 -0.9199607974234192 0.09203118410014138
vn 0.3800054075438392 -0.9174284670979695 0.11798685518188283
vn 0.9232053834174382 -0.38239824744259493 0.03825441650179735
vn 0.9238816352837772 0.3826783557837753 2.0514293270407817e-16
vn 0.3826783557837753 0.9238816352837772 8.497166432336895e-17
vn -0.3826783557837753 0.9238816352837772 -8.497166432336895e-17
vn -0.9238816352837772 0.3826783557837753 -2.0514293270407817e-16
vn -0.9238816352837772 -0.3826783557837753 -2.0514293270407817e-16
vn -0.3826783557837753 -0.9238816352837772 -8.497166432336895e-17
vn 0.3826783557837753 -0.9238816352837772 8.497166432336895e-17
vn 0.9238816352837772 -0.3826783557837753 2.0514293270407817e-16
vn 0.9238816352837772 0.3826783557837753 2.0514293270407817e-16
vn 0.3826783557837753 0.9238816352837772 8.497166432336895e-17
vn -0.3826783557837753 0.9238816352837772 -8.497166432336895e-17
vn -0.9238816352837772 0.3826783557837753 -2.0514293270407817e-16
vn -0.9238816352837772 -0.3826783557837753 -2.0514293270407817e-16
vn -0.3826783557837753 -0.9238816352837772 -8.497166432336895e-17
vn 0.3826783557837753 -0.9238816352837772 8.497166432336895e-17
vn 0.9238816352837772 -0.3826783557837753 2.0514293270407817e-16
vn 0.862858632050597 0.5054453294825985 1.9159310405982776e-16
vn 0.22592143274190135 0.9564042458347256 -0.1850687028569563
vn -0.18025138789835699 0.9314616369099669 -0.3160516668611656
vn -0.8039183085491648 0.5839082488755402 -0.1129889820936109
vn -0.862858632050597 -0.5054453294825985 -1.9159310405982776e-16
vn -0.305291411076244 -0.9475295137261869 -0.09478910771228959
vn 0.3115468938061657 -0.9424687531382981 -0.12120718756605066
vn 0.8816808399182883 -0.4695028062429983 -0.04696819616433614
vn 0.9238816352837771 0 0.38267835578377546
vn 0.38216419529650014 -0.05182048467766702 0.9226403227700112
vn -0.3815269554931374 -0.07751473987074788 0.9211018658839576
vn -0.9236683102721336 -0.0214883291860543 0.38258999504405944
vn -0.9238816352837771 0 -0.38267835578377546
vn -0.3823599259025481 -0.0407863265267133 -0.9231128655978392
vn 0.3820948900663718 -0.055200131923653174 -0.922473002543044
vn 0.9237496028564591 -0.016905640037288283 -0.38262366701167844
vn 0.9238816352837772 0 0.3826783557837755
vn 0.38267835578377507 0 0.9238816352837774
vn -0.3826783557837755 0 0.9238816352837772
vn -0.9238816352837774 0 0.38267835578377507
vn -0.9238816352837772 0 -0.3826783557837755
vn -0.38267835578377507 0 -0.9238816352837774
vn 0.3826783557837755 0 -0.9238816352837772
vn 0.9238816352837774 0 -0.38267835578377507
vn 0.9238816352837772 0 0.3826783557837755
vn 0.38267835578377507 0 0.9238816352837774
vn -0.3826783557837755 0 0.9238816352837772
vn -0.9238816352837774 0 0.38267835578377507
vn -0.9238816352837772 0 -0.3826783557837755
vn -0.38267835578377507 0 -0.9238816352837774
vn 0.3826783557837755 0 -0.9238816352837772
vn 0.9238816352837774 0 -0.38267835578377507
vn 0.8628586320505969 0 0.5054453294825987
vn 0.2660622110022445 0.05405579547746009 0.9624390218875668
vn -0.2582366141791146 0.08101362772079237 0.9626788889452309
vn -0.8492872496648558 0.02960481150700311 0.5271002966156818
vn -0.8628586320505969 0 -0.5054453294825987
vn -0.2922045173929389 0.04221393252858169 -0.955423730035858
vn 0.2959844952444671 0.05705599802590038 -0.9534871743574461
vn 0.871932725350457 0.02161227540434331 -0.4891484764514469
vn 0.9238816352837772 -0.3826783557837753 2.0514293270407817e-16
vn 0.3767058200477257 -0.909462434408643 -0.175985242397411
vn -0.3651568325232215 -0.8815802787582211 -0.29912656145214717
vn -0.9213589938745166 -0.38163345973880586 -0.07384786262531778
vn -0.9238816352837772 0.3826783557837753 -2.0514293270407817e-16
vn -0.3810543168069254 0.9199607974234192 -0.09203118410014155
vn 0.3800054075438392 0.9174284670979695 -0.11798685518188266
vn 0.9232053834174382 0.38239824744259493 -0.03825441650179694
vn 0.9238816352837772 -0.3826783557837753 2.0514293270407817e-16
vn 0.3826783557837753 -0.9238816352837772 8.497166432336895e-17
vn -0.3826783557837753 -0.9238816352837772 -8.497166432336895e-17
vn -0.9238816352837772 -0.3826783557837753 -2.0514293270407817e-16
vn -0.9238816352837772 0.3826783557837753 -2.0514293270407817e-16
vn -0.3826783557837753 0.9238816352837772 -8.497166432336895e-17
vn 0.3826783557837753 0.9238816352837772 8.497166432336895e-17
vn 0.9238816352837772 0.3826783557837753 2.0514293270407817e-16
vn 0.9238816352837772 -0.3826783557837753 2.0514293270407817e-16
vn 0.3826783557837753 -0.9238816352837772 8.497166432336895e-17
vn -0.3826783557837753 -0.9238816352837772 -8.497166432336895e-17
vn -0.9238816352837772 -0.3826783557837753 -2.0514293270407817e-16
vn -0.9238816352837772 0.3826783557837753 -2.0514293270407817e-16
vn -0.3826783557837753 0.9238816352837772 -8.497166432336895e-17
vn 0.3826783557837753 0.9238816352837772 8.497166432336895e-17
vn 0.9238816352837772 0.3826783557837753 2.0514293270407817e-16
vn 0.862858632050597 -0.5054453294825985 1.9159310405982776e-16
vn 0.2259214327419013 -0.9564042458347256 0.18506870285695642
vn -0.18025138789835715 -0.9314616369099669 0.3160516668611655
vn -0.8039183085491648 -0.5839082488755402 0.11298898209361054
vn -0.862858632050597 0.5054453294825985 -1.9159310405982776e-16
vn -0.305291411076244 0.9475295137261869 0.09478910771228945
vn 0.3115468938061656 0.9424687531382979 0.12120718756605077
vn 0.881680839918288 0.46950280624299817 0.04696819616433651
vn 0.9238816352837773 0 -0.382678355783775
vn 0.3821641952965006 0.05182048467766702 -0.922640322770011
vn -0.38152695549313687 0.07751473987074786 -0.9211018658839576
vn -0.9236683102721334 0.0214883291860543 -0.3825899950440599
vn -0.9238816352837773 0 0.382678355783775
vn -0.3823599259025485 0.0407863265267133 0.923112865597839
vn 0.3820948900663714 0.055200131923653174 0.9224730025430442
vn 0.9237496028564589 0.016905640037288283 0.3826236670116789
vn 0.9238816352837774 0 -0.38267835578377507
vn 0.3826783557837755 0 -0.9238816352837772
vn -0.38267835578377507 0 -0.9238816352837774
vn -0.9238816352837772 0 -0.3826783557837755
vn -0.9238816352837774 0 0.38267835578377507
vn -0.3826783557837755 0 0.9238816352837772
vn 0.38267835578377507 0 0.9238816352837774
vn 0.9238816352837772 0 0.3826783557837755
vn 0.9238816352837774 0 -0.38267835578377507
vn 0.3826783557837755 0 -0.9238816352837772
vn -0.38267835578377507 0 -0.9238816352837774
vn -0.9238816352837772 0 -0.3826783557837755
vn -0.9238816352837774 0 0.38267835578377507
vn -0.3826783557837755 0 0.9238816352837772
vn 0.38267835578377507 0 0.9238816352837774
vn 0.9238816352837772 0 0.3826783557837755
vn 0.8628586320505971 0 -0.5054453294825982
vn 0.266062211002245 -0.0540557954774601 -0.9624390218875668
vn -0.2582366141791141 -0.08101362772079236 -0.9626788889452309
vn -0.8492872496648556 -0.02960481150700311 -0.5271002966156823
vn -0.8628586320505971 0 0.5054453294825982
vn -0.29220451739293934 -0.04221393252858169 0.9554237300358578
vn 0.2959844952444666 -0.05705599802590037 0.9534871743574461
vn 0.8719327253504567 -0.02161227540434331 0.4891484764514472
vn 0.9238816352837772 0.3826783557837753 2.0514293270407817e-16
vn 0.37670582004772557 0.909462434408643 0.17598524239741117
vn -0.3651568325232216 0.8815802787582211 0.29912656145214706
vn -0.9213589938745166 0.38163345973880586 0.07384786262531737
vn -0.9238816352837772 -0.3826783557837753 -2.0514293270407817e-16
vn -0.3810543168069254 -0.9199607974234192 0.09203118410014138
vn 0.3800054075438392 -0.9174284670979695 0.11798685518188283
vn 0.9232053834174382 -0.38239824744259493 0.03825441650179735
vn 0.9238816352837772 0.3826783557837753 2.0514293270407817e-16
vn 0.3826783557837753 0.9238816352837772 8.497166432336895e-17
vn -0.3826783557837753 0.9238816352837772 -8.497166432336895e-17
vn -0.9238816352837772 0.3826783557837753 -2.0514293270407817e-16
vn -0.9238816352837772 -0.3826783557837753 -2.0514293270407817e-16
vn -0.3826783557837753 -0.9238816352837772 -8.497166432336895e-17
vn 0.3826783557837753 -0.9238816352837772 8.497166432336895e-17
vn 0.9238816352837772 -0.3826783557837753 2.0514293270407817e-16
vn 0.9238816352837772 0.3826783557837753 2.0514293270407817e-16
vn 0.3826783557837753 0.9238816352837772 8.497166432336895e-17
vn -0.3826783557837753 0.9238816352837772 -8.497166432336895e-17
vn -0.9238816352837772 0.3826783557837753 -2.0514293270407817e-16
vn -0.9238816352837772 -0.3826783557837753 -2.0514293270407817e-16
vn -0.3826783557837753 -0.9238816352837772 -8.497166432336895e-17
vn 0.3826783557837753 -0.9238816352837772 8.497166432336895e-17
vn 0.9238816352837772 -0.3826783557837753 2.0514293270407817e-16
vn 0.862858632050597 0.5054453294825985 1.9159310405982776e-16
vn 0.22592143274190135 0.9564042458347256 -0.1850687028569563
vn -0.18025138789835699 0.9314616369099669 -0.3160516668611656
vn -0.8039183085491648 0.5839082488755402 -0.1129889820936109
vn -0.862858632050597 -0.5054453294825985 -1.9159310405982776e-16
vn -0.305291411076244 -0.9475295137261869 -0.09478910771228959
vn 0.3115468938061657 -0.9424687531382981 -0.12120718756605066
vn 0.8816808399182883 -0.4695028062429983 -0.04696819616433614
vn 0.9238816352837771 0 0.38267835578377546
vn 0.38216419529650014 -0.05182048467766702 0.9226403227700112
vn -0.3815269554931374 -0.07751473987074788 0.9211018658839576
vn -0.9236683102721336 -0.0214883291860543 0.38258999504405944
vn -0.9238816352837771 0 -0.38267835578377546
vn -0.3823599259025481 -0.0407863265267133 -0.9231128655978392
vn 0.3820948900663718 -0.055200131923653174 -0.922473002543044
vn 0.9237496028564591 -0.016905640037288283 -0.38262366701167844
vn 0.9238816352837772 0 0.3826783557837755
vn 0.38267835578377507 0 0.9238816352837774
vn -0.3826783557837755 0 0.9238816352837772
vn -0.9238816352837774 0 0.38267835578377507
vn -0.9238816352837772 0 -0.3826783557837755
vn -0.38267835578377507 0 -0.9238816352837774
vn 0.3826783557837755 0 -0.9238816352837772
vn 0.9238816352837774 0 -0.38267835578377507
vn 0.9238816352837772 0 0.3826783557837755
vn 0.38267835578377507 0 0.9238816352837774
vn -0.3826783557837755 0 0.9238816352837772
vn -0.9238816352837774 0 0.38267835578377507
vn -0.9238816352837772 0 -0.3826783557837755
vn -0.38267835578377507 0 -0.9238816352837774
vn 0.3826783557837755 0 -0.9238816352837772
vn 0.9238816352837774 0 -0.38267835578377507
vn 0.8628586320505969 0 0.5054453294825987
vn 0.2660622110022445 0.05405579547746009 0.9624390218875668
vn -0.2582366141791146 0.08101362772079237 0.9626788889452309
vn -0.8492872496648558 0.02960481150700311 0.5271002966156818
vn -0.8628586320505969 0 -0.5054453294825987
vn -0.2922045173929389 0.04221393252858169 -0.955423730035858
vn 0.2959844952444671 0.05705599802590038 -0.9534871743574461
vn 0.871932725350457 0.02161227540434331 -0.4891484764514469
vn 0 0 0
vn 0 0 0
vn 0 0 0
vn 0 0 0
vn -2.220446049250313e-16 0 1
vn 2.220446049250313e-16 0 -1
vn 0 0 0
vn 0 0 0
vn 0 0 0
vn 0 0 0
vn -2.220446049250313e-16 0 1
vn 2.220446049250313e-16 0 -1
usemtl m_49d2676f-d0aa-e7b3-9897-a398e160a9ac
f 2/1/1 1/2/1 3/3/1 4/4/1
f 7/5/2 5/6/2 6/7/2 8/8/2
f 5/9/3 1/10/3 2/11/3 6/12/3
f 4/13/4 3/14/4 7/15/4 8/16/4
f 3/17/5 1/18/5 5/19/5 7/20/5
f 6/21/6 2/22/6 4/23/6 8/24/6
f 9/25/7 10/26/7 11/27/7 12/28/7
f 12/29/8 11/30/8 13/31/8 14/32/8
f 14/33/9 13/34/9 15/35/9 16/36/9
f 16/37/10 15/38/10 17/39/10 18/40/10
f 18/41/11 17/42/11 19/43/11 20/44/11
f 20/45/12 19/46/12 21/47/12 22/48/12
f 22/49/13 21/50/13 23/51/13 24/52/13
f 24/53/14 23/54/14 10/55/14 9/56/14
f 10/57/15 25/58/15 26/59/15 11/60/15
f 11/61/16 26/62/16 27/63/16 13/64/16
f 13/65/17 27/66/17 28/67/17 15/68/17
f 15/69/18 28/70/18 29/71/18 17/72/18
f 17/73/19 29/74/19 30/75/19 19/76/19
f 19/77/20 30/78/20 31/79/20 21/80/20
f 21/81/21 31/82/21 32/83/21 23/84/21
f 23/85/22 32/86/22 25/87/22 10/88/22
f 25/89/23 33/90/23 34/91/23 26/92/23
f 26/93/24 34/94/24 35/95/24 27/96/24
f 27/97/25 35/98/25 36/99/25 28/100/25
f 28/101/26 36/102/26 37/103/26 29/104/26
f 29/105/27 37/106/27 38/107/27 30/108/27
f 30/109/28 38/110/28 39/111/28 31/112/28
f 31/113/29 39/114/29 40/115/29 32/116/29
f 32/117/30 40/118/30 33/119/30 25/120/30
f 33/121/31 41/122/31 42/123/31 34/124/31
f 34/125/32 42/126/32 43/127/32 35/128/32
f 35/129/33 43/130/33 44/131/33 36/132/33
f 36/133/34 44/134/34 45/135/34 37/136/34
f 37/137/35 45/138/35 46/139/35 38/140/35
f 38/141/36 46/142/36 47/143/36 39/144/36
f 39/145/37 47/146/37 48/147/37 40/148/37
f 40/149/38 48/150/38 41/151/38 33/152/38
f 41/153/39 49/154/39 50/155/39 42/156/39
f 42/157/40 50/158/40 51/159/40 43/160/40
f 43/161/41 51/162/41 52/163/41 44/164/41
f 44/165/42 52/166/42 53/167/42 45/168/42
f 45/169/43 53/170/43 54/171/43 46/172/43
f 46/173/44 54/174/44 55/175/44 47/176/44
f 47/177/45 55/178/45 56/179/45 48/180/45
f 48/181/46 56/182/46 49/183/46 41/184/46
f 49/185/47 57/186/47 58/187/47 50/188/47
f 50/189/48 58/190/48 59/191/48 51/192/48
f 51/193/49 59/194/49 60/195/49 52/196/49
f 52/197/50 60/198/50 61/199/50 53/200/50
f 53/201/51 61/202/51 62/203/51 54/204/51
f 54/205/52 62/206/52 63/207/52 55/208/52
f 55/209/53 63/210/53 64/211/53 56/212/53
f 56/213/54 64/214/54 57/215/54 49/216/54
f 57/217/55 65/218/55 66/219/55 58/220/55
f 58/221/56 66/222/56 67/223/56 59/224/56
f 59/225/57 67/226/57 68/227/57 60/228/57
f 60/229/58 68/230/58 69/231/58 61/232/58
f 61/233/59 69/234/59 70/235/59 62/236/59
f 62/237/60 70/238/60 71/239/60 63/240/60
f 63/241/61 71/242/61 72/243/61 64/244/61
f 64/245/62 72/246/62 65/247/62 57/248/62
f 65/249/63 73/250/63 74/251/63 66/252/63
f 66/253/64 74/254/64 75/255/64 67/256/64
f 67/257/65 75/258/65 76/259/65 68/260/65
f 68/261/66 76/262/66 77/263/66 69/264/66
f 69/265/67 77/266/67 78/267/67 70/268/67
f 70/269/68 78/270/68 79/271/68 71/272/68
f 71/273/69 79/274/69 80/275/69 72/276/69
f 72/277/70 80/278/70 73/279/70 65/280/70
f 73/281/71 81/282/71 82/283/71 74/284/71
f 74/285/72 82/286/72 83/287/72 75/288/72
f 75/289/73 83/290/73 84/291/73 76/292/73
f 76/293/74 84/294/74 85/295/74 77/296/74
f 77/297/75 85/298/75 86/299/75 78/300/75
f 78/301/76 86/302/76 87/303/76 79/304/76
f 79/305/77 87/306/77 88/307/77 80/308/77
f 80/309/78 88/310/78 81/311/78 73/312/78
f 81/313/79 89/314/79 90/315/79 82/316/79
f 82/317/80 90/318/80 91/319/80 83/320/80
f 83/321/81 91/322/81 92/323/81 84/324/81
f 84/325/82 92/326/82 93/327/82 85/328/82
f 85/329/83 93/330/83 94/331/83 86/332/83
f 86/333/84 94/334/84 95/335/84 87/336/84
f 87/337/85 95/338/85 96/339/85 88/340/85
f 88/341/86 96/342/86 89/343/86 81/344/86
f 89/345/87 97/346/87 98/347/87 90/348/87
f 90/349/88 98/350/88 99/351/88 91/352/88
f 91/353/89 99/354/89 100/355/89 92/356/89
f 92/357/90 100/358/90 101/359/90 93/360/90
f 93/361/91 101/362/91 102/363/91 94/364/91
f 94/365/92 102/366/92 103/367/92 95/368/92
f 95/369/93 103/370/93 104/371/93 96/372/93
f 96/373/94 104/374/94 97/375/94 89/376/94
f 97/377/95 105/378/95 106/379/95 98/380/95
f 98/381/96 106/382/96 107/383/96 99/384/96
f 99/385/97 107/386/97 108/387/97 100/388/97
f 100/389/98 108/390/98 109/391/98 101/392/98
f 101/393/99 109/394/99 110/395/99 102/396/99
f 102/397/100 110/398/100 111/399/100 103/400/100
f 103/401/101 111/402/101 112/403/101 104/404/101
f 104/405/102 112/406/102 105/407/102 97/408/102
f 105/409/103 113/410/103 114/411/103 106/412/103
f 106/413/104 114/414/104 115/415/104 107/416/104
f 107/417/105 115/418/105 116/419/105 108/420/105
f 108/421/106 116/422/106 117/423/106 109/424/106
f 109/425/107 117/426/107 118/427/107 110/428/107
f 110/429/108 118/430/108 119/431/108 111/432/108
f 111/433/109 119/434/109 120/435/109 112/436/109
f 112/437/110 120/438/110 113/439/110 105/440/110
f 113/441/111 121/442/111 122/443/111 114/444/111
f 114/445/112 122/446/112 123/447/112 115/448/112
f 115/449/113 123/450/113 124/451/113 116/452/113
f 116/453/114 124/454/114 125/455/114 117/456/114
f 117/457/115 125/458/115 126/459/115 118/460/115
f 118/461/116 126/462/116 127/463/116 119/464/116
f 119/465/117 127/466/117 128/467/117 120/468/117
f 120/469/118 128/470/118 121/471/118 113/472/118
f 121/473/119 129/474/119 130/475/119 122/476/119
f 122/477/120 130/478/120 131/479/120 123/480/120
f 123/481/121 131/482/121 132/483/121 124/484/121
f 124/485/122 132/486/122 133/487/122 125/488/122
f 125/489/123 133/490/123 134/491/123 126/492/123
f 126/493/124 134/494/124 135/495/124 127/496/124
f 127/497/125 135/498/125 136/499/125 128/500/125
f 128/501/126 136/502/126 129/503/126 121/504/126
f 129/505/127 9/506/127 12/507/127 130/508/127
f 130/509/128 12/510/128 14/511/128 131/512/128
f 131/513/129 14/514/129 16/515/129 132/516/129
f 132/517/130 16/518/130 18/519/130 133/520/130
f 133/521/131 18/522/131 20/523/131 134/524/131
f 134/525/132 20/526/132 22/527/132 135/528/132
f 135/529/133 22/530/133 24/531/133 136/532/133
f 136/533/134 24/534/134 9/535/134 129/536/134
f 137/537/135 138/538/135 139/539/135 140/540/135
f 140/541/136 139/542/136 141/543/136 142/544/136
f 142/545/137 141/546/137 143/547/137 144/548/137
f 144/549/138 143/550/138 145/551/138 146/552/138
f 146/553/139 145/554/139 147/555/139 148/556/139
f 148/557/140 147/558/140 149/559/140 150/560/140
f 150/561/141 149/562/141 151/563/141 152/564/141
f 152/565/142 151/566/142 138/567/142 137/568/142
f 138/569/143 153/570/143 154/571/143 139/572/143
f 139/573/144 154/574/144 155/575/144 141/576/144
f 141/577/145 155/578/145 156/579/145 143/580/145
f 143/581/146 156/582/146 157/583/146 145/584/146
f 145/585/147 157/586/147 158/587/147 147/588/147
f 147/589/148 158/590/148 159/591/148 149/592/148
f 149/593/149 159/594/149 160/595/149 151/596/149
f 151/597/150 160/598/150 153/599/150 138/600/150
f 153/601/151 161/602/151 162/603/151 154/604/151
f 154/605/152 162/606/152 163/607/152 155/608/152
f 155/609/153 163/610/153 164/611/153 156/612/153
f 156/613/154 164/614/154 165/615/154 157/616/154
f 157/617/155 165/618/155 166/619/155 158/620/155
f 158/621/156 166/622/156 167/623/156 159/624/156
f 159/625/157 167/626/157 168/627/157 160/628/157
f 160/629/158 168/630/158 161/631/158 153/632/158
f 161/633/159 169/634/159 170/635/159 162/636/159
f 162/637/160 170/638/160 171/639/160 163/640/160
f 163/641/161 171/642/161 172/643/161 164/644/161
f 164/645/162 172/646/162 173/647/162 165/648/162
f 165/649/163 173/650/163 174/651/163 166/652/163
f 166/653/164 174/654/164 175/655/164 167/656/164
f 167/657/165 175/658/165 176/659/165 168/660/165
f 168/661/166 176/662/166 169/663/166 161/664/166
f 169/665/167 177/666/167 178/667/167 170/668/167
f 170/669/168 178/670/168 179/671/168 171/672/168
f 171/673/169 179/674/169 180/675/169 172/676/169
f 172/677/170 180/678/170 181/679/170 173/680/170
f 173/681/171 181/682/171 182/683/171 174/684/171
f 174/685/172 182/686/172 183/687/172 175/688/172
f 175/689/173 183/690/173 184/691/173 176/692/173
f 176/693/174 184/694/174 177/695/174 169/696/174
f 177/697/175 185/698/175 186/699/175 178/700/175
f 178/701/176 186/702/176 187/703/176 179/704/176
f 179/705/177 187/706/177 188/707/177 180/708/177
f 180/709/178 188/710/178 189/711/178 181/712/178
f 181/713/179 189/714/179 190/715/179 182/716/179
f 182/717/180 190/718/180 191/719/180 183/720/180
f 183/721/181 191/722/181 192/723/181 184/724/181
f 184/725/182 192/726/182 185/727/182 177/728/182
f 185/729/183 193/730/183 194/731/183 186/732/183
f 186/733/184 194/734/184 195/735/184 187/736/184
f 187/737/185 195/738/185 196/739/185 188/740/185
f 188/741/186 196/742/186 197/743/186 189/744/186
f 189/745/187 197/746/187 198/747/187 190/748/187
f 190/749/188 198/750/188 199/751/188 191/752/188
f 191/753/189 199/754/189 200/755/189 192/756/189
f 192/757/190 200/758/190 193/759/190 185/760/190
f 193/761/191 201/762/191 202/763/191 194/764/191
f 194/765/192 202/766/192 203/767/192 195/768/192
f 195/769/193 203/770/193 204/771/193 196/772/193
f 196/773/194 204/774/194 205/775/194 197/776/194
f 197/777/195 205/778/195 206/779/195 198/780/195
f 198/781/196 206/782/196 207/783/196 199/784/196
f 199/785/197 207/786/197 208/787/197 200/788/197
f 200/789/198 208/790/198 201/791/198 193/792/198
f 201/793/199 209/794/199 210/795/199 202/796/199
f 202/797/200 210/798/200 211/799/200 203/800/200
f 203/801/201 211/802/201 212/803/201 204/804/201
f 204/805/202 212/806/202 213/807/202 205/808/202
f 205/809/203 213/810/203 214/811/203 206/812/203
f 206/813/204 214/814/204 215/815/204 207/816/204
f 207/817/205 215/818/205 216/819/205 208/820/205
f 208/821/206 216/822/206 209/823/206 201/824/206
f 209/825/207 217/826/207 218/827/207 210/828/207
f 210/829/208 218/830/208 219/831/208 211/832/208
f 211/833/209 219/834/209 220/835/209 212/836/209
f 212/837/210 220/838/210 221/839/210 213/840/210
f 213/841/211 221/842/211 222/843/211 214/844/211
f 214/845/212 222/846/212 223/847/212 215/848/212
f 215/849/213 223/850/213 224/851/213 216/852/213
f 216/853/214 224/854/214 217/855/214 209/856/214
f 217/857/215 225/858/215 226/859/215 218/860/215
f 218/861/216 226/862/216 227/863/216 219/864/216
f 219/865/217 227/866/217 228/867/217 220/868/217
f 220/869/218 228/870/218 229/871/218 221/872/218
f 221/873/219 229/874/219 230/875/219 222/876/219
f 222/877/220 230/878/220 231/879/220 223/880/220
f 223/881/221 231/882/221 232/883/221 224/884/221
f 224/885/222 232/886/222 225/887/222 217/888/222
f 225/889/223 233/890/223 234/891/223 226/892/223
f 226/893/224 234/894/224 235/895/224 227/896/224
f 227/897/225 235/898/225 236/899/225 228/900/225
f 228/901/226 236/902/226 237/903/226 229/904/226
f 229/905/227 237/906/227 238/907/227 230/908/227
f 230/909/228 238/910/228 239/911/228 231/912/228
f 231/913/229 239/914/229 240/915/229 232/916/229
f 232/917/230 240/918/230 233/919/230 225/920/230
f 233/921/231 241/922/231 242/923/231 234/924/231
f 234/925/232 242/926/232 243/927/232 235/928/232
f 235/929/233 243/930/233 244/931/233 236/932/233
f 236/933/234 244/934/234 245/935/234 237/936/234
f 237/937/235 245/938/235 246/939/235 238/940/235
f 238/941/236 246/942/236 247/943/236 239/944/236
f 239/945/237 247/946/237 248/947/237 240/948/237
f 240/949/238 248/950/238 241/951/238 233/952/238
f 241/953/239 249/954/239 250/955/239 242/956/239
f 242/957/240 250/958/240 251/959/240 243/960/240
f 243/961/241 251/962/241 252/963/241 244/964/241
f 244/965/242 252/966/242 253/967/242 245/968/242
f 245/969/243 253/970/243 254/971/243 246/972/243
f 246/973/244 254/974/244 255/975/244 247/976/244
f 247/977/245 255/978/245 256/979/245 248/980/245
f 248/981/246 256/982/246 249/983/246 241/984/246
f 249/985/247 257/986/247 258/987/247 250/988/247
f 250/989/248 258/990/248 259/991/248 251/992/248
f 251/993/249 259/994/249 260/995/249 252/996/249
f 252/997/250 260/998/250 261/999/250 253/1000/250
f 253/1001/251 261/1002/251 262/1003/251 254/1004/251
f 254/1005/252 262/1006/252 263/1007/252 255/1008/252
f 255/1009/253 263/1010/253 264/1011/253 256/1012/253
f 256/1013/254 264/1014/254 257/1015/254 249/1016/254
f 257/1017/255 137/1018/255 140/1019/255 258/1020/255
f 258/1021/256 140/1022/256 142/1023/256 259/1024/256
f 259/1025/257 142/1026/257 144/1027/257 260/1028/257
f 260/1029/258 144/1030/258 146/1031/258 261/1032/258
f 261/1033/259 146/1034/259 148/1035/259 262/1036/259
f 262/1037/260 148/1038/260 150/1039/260 263/1040/260
f 263/1041/261 150/1042/261 152/1043/261 264/1044/261
f 264/1045/262 152/1046/262 137/1047/262 257/1048/262
f 266/1049/263 265/1050/263 267/1051/263 268/1052/263
f 269/1053/264 270/1054/264 271/1055/264 272/1056/264
f 265/1057/265 266/1058/265 269/1059/265 270/1060/265
f 267/1061/266 271/1062/266 268/1063/266 272/1064/266
f 267/1065/267 265/1066/267 269/1067/267 271/1068/267
f 270/1069/268 266/1070/268 268/1071/268 272/1072/268
f 274/1073/269 273/1074/269 275/1075/269 276/1076/269
f 277/1077/270 278/1078/270 279/1079/270 280/1080/270
f 273/1081/271 274/1082/271 277/1083/271 278/1084/271
f 275/1085/272 279/1086/272 276/1087/272 280/1088/272
f 275/1089/273 273/1090/273 277/1091/273 279/1092/273
f 278/1093/274 274/1094/274 276/1095/274 280/1096/274