# Made in Blockbench 5.0.7
mtllib East.mtl

o mesh
v 0.5 0.875 0.5
v 0.5 0.875 -0.5
v 0.5 0 0.5
v 0.5 0 -0.5
v -0.5 0.875 0.5
v -0.5 0.875 -0.5
v -0.5 0 0.5
v -0.5 0 -0.5
vt 8.4375 -7.125
vt 7.4375 -7.125
vt 7.4375 -8
vt 8.4375 -8
vt 9.1875 -0.8125
vt 9.1875 0.0625
vt 8.1875 0.0625
vt 8.1875 -0.8125
vt 5.5625 -3.1875
vt 6.5625 -3.1875
vt 6.5625 -2.1875
vt 5.5625 -2.1875
vt 6.9375 -5.5
vt 6.9375 -4.5
vt 5.9375 -4.5
vt 5.9375 -5.5
vt 9.3125 -1.75
vt 9.3125 -0.875
vt 8.3125 -0.875
vt 8.3125 -1.75
vt 1 -7.4375
vt 0 -7.4375
vt 0 -8.3125
vt 1 -8.3125
vn 1 0 0
vn -1 0 0
vn 0 1 0
vn 0 -1 0
vn 0 0 1
vn 0 0 -1
usemtl none
f 2/1/1 1/2/1 3/3/1 4/4/1
f 7/5/2 5/6/2 6/7/2 8/8/2
f 5/9/3 1/10/3 2/11/3 6/12/3
f 4/13/4 3/14/4 7/15/4 8/16/4
f 3/17/5 1/18/5 5/19/5 7/20/5
f 6/21/6 2/22/6 4/23/6 8/24/6
o mesh
v 0.5625 1 0.5
v 0.5625 1 -0.5
v 0.5625 0.8125 0.5
v 0.5625 0.8125 -0.5
v -0.5 1 0.5
v -0.5 1 -0.5
v -0.5 0.875 0.5
v -0.5 0.875 -0.5
v 0.5625 0.8125 -0.125
v 0.5625 1 -0.25
v 0.5625 0.875 0.3125
v 0.5625 1 0.3125
v 0.5625 0.6875 0.03125
v 0.5625 1 0.03125
vt 10.5625 -5.625
vt 10.5625 -5.5
vt 9.5625 -5.5
vt 9.5625 -5.625
vt 1.0625 -8.5625
vt 1.0625 -8.375
vt 0 -8.375
vt 0 -8.5
vt 2.1875 -8.375
vt 1.125 -8.375
vt 1.125 -8.5625
vt 2.1875 -8.5
vt 9.625 1
vt 9.375 1
vt 9.25 0.8125
vt 9.625 0.8125
vt 4.4375 -2.625
vt 4.4375 -2.375
vt 3.375 -2.375
vt 3.9375 -0.125
vt 3.9375 -1.1875
vt 4.3125 -1.1875
vt 4.9375 -0.125
vt 8.8125 1
vt 8.625 1
vt 8.625 0.8125
vt 8.8125 0.875
vt 3.375 -3.375
vt 4.4375 -3.375
vt 4.4375 -3.1875
vt 3.375 -2.375
vt 9.155421179445124 -3.9273584892847344
vt 9.155421179445124 -4.125
vt 10.219578820554876 -4.105218501567682
vt 9.375 1
vt 9.09375 1
vt 9.09375 0.6875
vt 9.25 0.8125
vt 9.09375 1
vt 8.8125 1
vt 8.8125 0.875
vt 9.09375 0.6875
vt 4.4375 -3.1875
vt 4.4375 -2.90625
vt 3.375 -2.375
vt 4.4375 -2.90625
vt 4.4375 -2.625
vt 3.375 -2.375
vt 8.640725003259758 0.31138577003560575
vt 8.713511758644815 0.125
vt 9.875 0.31138577003560663
vt 8.505733958888435 -8.0625
vt 8.8125 -7.920537619952107
vt 8.505733958888435 -6.8861487834296415
vn -1 0 0
vn 0 0 1
vn 0 0 -1
vn 1 0 0
vn 0 1 0
vn -0.058722021951470346 -0.9982743731749959 0
vn 1 0 0
vn 0 1 0
vn -0.05571820886914855 -0.9472095507755254 -0.3157365169251751
vn 1 0 0
vn 1 0 0
vn 0 1 0
vn 0 1 0
vn -0.3820424915252683 -0.7216358173255067 -0.5773086538604054
vn 0.09742262540572309 -0.8280923159486463 0.5520615439657642
usemtl none
f 15/25/7 13/26/7 14/27/7 16/28/7
f 11/29/8 9/30/8 13/31/8 15/32/8
f 14/33/9 10/34/9 12/35/9 16/36/9
f 10/37/10 18/38/10 17/39/10 12/40/10
f 18/41/11 10/42/11 14/43/11
f 16/44/12 12/45/12 17/46/12 15/47/12
f 20/48/13 9/49/13 11/50/13 19/51/13
f 13/52/14 9/53/14 20/54/14 14/55/14
f 19/56/15 11/57/15 15/58/15
f 18/59/16 22/60/16 21/61/16 17/62/16
f 22/63/17 20/64/17 19/65/17 21/66/17
f 20/67/18 22/68/18 14/69/18
f 22/70/19 18/71/19 14/72/19
f 17/73/20 21/74/20 15/75/20
f 21/76/21 19/77/21 15/78/21