# Made in Blockbench 5.0.7
mtllib Northwest.mtl

o mesh
v 0.5 0.875 0.5
v 0.5 0.875 -0.5
v 0.5 0 0.5
v 0.5 0 -0.5
v -0.5 0.875 0.5
v -0.5 0.875 -0.5
v -0.5 0 0.5
v -0.5 0 -0.5
vt 8.4375 -6.1875
vt 7.4375 -6.1875
vt 7.4375 -7.0625
vt 8.4375 -7.0625
vt 1 -7.375
vt 1 -6.5
vt 0 -6.5
vt 0 -7.375
vt 5.375 -4.4375
vt 6.375 -4.4375
vt 6.375 -3.4375
vt 5.375 -3.4375
vt 6.4375 0
vt 6.4375 1
vt 5.4375 1
vt 5.4375 0
vt 2.0625 -7.375
vt 2.0625 -6.5
vt 1.0625 -6.5
vt 1.0625 -7.375
vt 3.125 -6.5
vt 2.125 -6.5
vt 2.125 -7.375
vt 3.125 -7.375
vn 1 0 0
vn -1 0 0
vn 0 1 0
vn 0 -1 0
vn 0 0 1
vn 0 0 -1
usemtl none
f 2/1/1 1/2/1 3/3/1 4/4/1
f 7/5/2 5/6/2 6/7/2 8/8/2
f 5/9/3 1/10/3 2/11/3 6/12/3
f 4/13/4 3/14/4 7/15/4 8/16/4
f 3/17/5 1/18/5 5/19/5 7/20/5
f 6/21/6 2/22/6 4/23/6 8/24/6
o mesh
v 0.5 1 0.5
v 0.5 1 -0.5625
v 0.5 0.875 0.5
v 0.5 0.8125 -0.5625
v -0.5625 1 0.5
v -0.5625 1 -0.5625
v -0.5625 0.8125 0.5
v -0.5625 0.8125 -0.5625
v -0.5625 0.8125 0.234375
v -0.5625 1 0.234375
v -0.5625 0.75 -0.36328125
v -0.5625 1 -0.36328125
v -0.5625 0.875 -0.064453125
v -0.5625 1 -0.064453125
v -0.296875 0.8125 -0.5625
v -0.296875 1 -0.5625
v 0.30078125 0.8125 -0.5625
v 0.30078125 1 -0.5625
v 0.001953125 0.75 -0.5625
v 0.001953125 1 -0.5625
vt 10.25 -7.4375
vt 9.1875 -7.4375
vt 9.1875 -7.5625
vt 10.25 -7.625
vt 10.3125 0
vt 10.3125 0.125
vt 9.25 0.125
vt 9.25 -0.0625
vt 9.8125 -8.25
vt 9.8125 -8.0625
vt 9.546875 -8.0625
vt 9.546875 -8.25
vt 2.9375 -2.046875
vt 2.9375 -2.3125
vt 4 -2.3125
vt 4 -1.25
vt 0.978125 -0.7529000000000001
vt 2.30625 -0.7529000000000001
vt 1.66875 0.09939374999999995
vt 0.81875 -0.5409687500000002
vt 8.94921875 -8.0625
vt 8.75 -8.0625
vt 8.75 -8.25
vt 8.94921875 -8.3125
vt 9.546875 -8.0625
vt 9.24804375 -8.0625
vt 9.24804375 -8.1875
vt 9.546875 -8.25
vt 9.24804375 -8.0625
vt 8.94921875 -8.0625
vt 8.94921875 -8.3125
vt 9.24804375 -8.1875
vt 2.9375 -1.44921875
vt 2.9375 -1.74804375
vt 4 -1.25
vt 2.9375 -1.74804375
vt 2.9375 -2.046875
vt 4 -1.25
vt 0.9781250000000002 -0.7528999999999999
vt 1.157425 -1
vt 2.30625 -0.7529000000000001
vt 9.0625 -1.8248988945593605
vt 8.767280714656376 -1.9581965068561034
vt 9.0625 -3
vt 10.1875 -1.8125
vt 9.921875 -1.8125
vt 9.921875 -2
vt 10.1875 -2
vt 3.203125 -1.25
vt 2.9375 -1.25
vt 2.9375 -1.44921875
vt 2.7224211184678846 -0.4375
vt 2.7224211184678846 -0.2287062500000001
vt 2.4567961184678846 -0.2287062500000001
vt 9.32421875 -1.8125
vt 9.125 -1.8125
vt 9.125 -2
vt 9.32421875 -2
vt 4 -1.25
vt 3.80078125 -1.25
vt 2.9375 -1.44921875
vt 7.737957068437207 -8.550159196966115
vt 7.699542931562793 -8.354679109899028
vt 7.699542931562793 -9.4375
vt 9.921875 -1.8125
vt 9.62304375 -1.8125
vt 9.62304375 -2.0625
vt 9.921875 -2
vt 9.62304375 -1.8125
vt 9.32421875 -1.8125
vt 9.32421875 -2
vt 9.62304375 -2.0625
vt 3.80078125 -1.25
vt 3.50195625 -1.25
vt 2.9375 -1.44921875
vt 3.50195625 -1.25
vt 3.203125 -1.25
vt 2.9375 -1.44921875
vt 2.456795782923427 -0.22870598624626615
vt 2.1525788815321154 -0.25427375835039756
vt 2.7224211184678846 -0.4375
vt 10.205146822742016 -6.1875
vt 10.5 -6.108337127981712
vt 9.611829647599734 -6.108337127981712
vn 1 0 0
vn 0 0 1
vn -1 0 0
vn 0 1 0
vn 0.04399886582163249 -0.9973076252903365 0.05866515442884332
vn -1 0 0
vn -1 0 0
vn -1 0 0
vn 0 1 0
vn 0 1 0
vn -0.1517620129838473 -0.9674828327720266 -0.20234935064512977
vn 0.125620196200897 -0.9152328580351067 0.38284250270749565
vn 0 0 -1
vn 0 1 0
vn 0 -0.9541464875877231 -0.2993400745373249
vn 0 0 -1
vn 0 1 0
vn 0 -0.954146487587723 -0.29934007453732486
vn 0 0 -1
vn 0 0 -1
vn 0 1 0
vn 0 1 0
vn -0.17708650981900037 -0.8466948750720955 -0.5017451111538344
vn 0.17708650981900037 -0.8466948750720955 0.5017451111538344
usemtl none
f 10/25/7 9/26/7 11/27/7 12/28/7
f 11/29/8 9/30/8 13/31/8 15/32/8
f 15/33/9 13/34/9 18/35/9 17/36/9
f 18/37/10 13/38/10 9/39/10 10/40/10
f 17/41/11 12/42/11 11/43/11 15/44/11
f 20/45/12 14/46/12 16/47/12 19/48/12
f 18/49/13 22/50/13 21/51/13 17/52/13
f 22/53/14 20/54/14 19/55/14 21/56/14
f 20/57/15 22/58/15 10/59/15
f 22/60/16 18/61/16 10/62/16
f 17/63/17 21/64/17 12/65/17
f 21/66/18 19/67/18 12/68/18
f 14/69/19 24/70/19 23/71/19 16/72/19
f 24/73/20 14/74/20 20/75/20
f 19/76/21 16/77/21 23/78/21
f 26/79/22 10/80/22 12/81/22 25/82/22
f 10/83/23 26/84/23 20/85/23
f 25/86/24 12/87/24 19/88/24
f 24/89/25 28/90/25 27/91/25 23/92/25
f 28/93/26 26/94/26 25/95/26 27/96/26
f 26/97/27 28/98/27 20/99/27
f 28/100/28 24/101/28 20/102/28
f 23/103/29 27/104/29 19/105/29
f 27/106/30 25/107/30 19/108/30