# Made in Blockbench 5.0.7
mtllib North.mtl

o mesh
v 0.5 0.875 0.5
v 0.5 0.875 -0.5
v 0.5 0 0.5
v 0.5 0 -0.5
v -0.5 0.875 0.5
v -0.5 0.875 -0.5
v -0.5 0 0.5
v -0.5 0 -0.5
vt 2.0625 -7.4375
vt 1.0625 -7.4375
vt 1.0625 -8.3125
vt 2.0625 -8.3125
vt 3.125 -8.3125
vt 3.125 -7.4375
vt 2.125 -7.4375
vt 2.125 -8.3125
vt 6.0625 -1.0625
vt 7.0625 -1.0625
vt 7.0625 -0.0625
vt 6.0625 -0.0625
vt 7.1875 -2.125
vt 7.1875 -1.125
vt 6.1875 -1.125
vt 6.1875 -2.125
vt 4.1875 -8.3125
vt 4.1875 -7.4375
vt 3.1875 -7.4375
vt 3.1875 -8.3125
vt 5.25 -7.4375
vt 4.25 -7.4375
vt 4.25 -8.3125
vt 5.25 -8.3125
vn 1 0 0
vn -1 0 0
vn 0 1 0
vn 0 -1 0
vn 0 0 1
vn 0 0 -1
usemtl none
f 2/1/1 1/2/1 3/3/1 4/4/1
f 7/5/2 5/6/2 6/7/2 8/8/2
f 5/9/3 1/10/3 2/11/3 6/12/3
f 4/13/4 3/14/4 7/15/4 8/16/4
f 3/17/5 1/18/5 5/19/5 7/20/5
f 6/21/6 2/22/6 4/23/6 8/24/6
o mesh
v 0.5 1 0.5
v 0.5 1 -0.5625
v 0.5 0.875 0.5
v 0.5 0.8125 -0.5625
v -0.5 1 0.5
v -0.5 1 -0.5625
v -0.5 0.875 0.5
v -0.5 0.8125 -0.5625
v 0.25 1 -0.5625
v 0.25 0.875 -0.5625
v -0.3125 1 -0.5625
v -0.3125 0.75 -0.5625
v -0.03125 1 -0.5625
v -0.03125 0.8125 -0.5625
vt 10.4375 -0.875
vt 9.375 -0.875
vt 9.375 -1
vt 10.4375 -1.0625
vt 10.4375 -1.25
vt 10.4375 -1.125
vt 9.375 -1.125
vt 9.375 -1.3125
vt 10.5625 -5.8125
vt 10.5625 -5.6875
vt 9.5625 -5.6875
vt 9.5625 -5.8125
vt 4.8125 -1.25
vt 4.0625 -2.3125
vt 5.0625 -2.3125
vt 5.0625 -1.25
vt 1.7292433062309176 -1.81124375
vt 1.7865058062309176 -2.0625
vt 2.8207620562309175 -1.81124375
vt 2.5917183062309177 -0.868425
vt 7.6875 -8.0625
vt 7.4375 -8.0625
vt 7.4375 -8.25
vt 7.6875 -8.1875
vt 4.25 -1.25
vt 4.0625 -1.25
vt 4.0625 -2.3125
vt 2.607069679773214 -0.8516460824008127
vt 1.5625 -1.055812430586057
vt 1.5968007828263242 -1.250454725720783
vt 8.4375 -8.0625
vt 8.25 -8.0625
vt 8.25 -8.3125
vt 8.4375 -8.25
vt 4.8125 -1.25
vt 4.53125 -1.25
vt 4.0625 -2.3125
vt 4.53125 -1.25
vt 4.25 -1.25
vt 4.0625 -2.3125
vt 1.5968007828263242 -1.250454725720783
vt 1.6630199352498183 -1.5308515436287955
vt 2.607066084108466 -0.8516475018072538
vt 1.6630199352498183 -1.5308515436287955
vt 1.7292433062309178 -1.81124375
vt 2.607066084108466 -0.851647501807254
vt 8.25 -8.0625
vt 7.96875 -8.0625
vt 7.96875 -8.25
vt 8.25 -8.3125
vt 7.96875 -8.0625
vt 7.6875 -8.0625
vt 7.6875 -8.1875
vt 7.96875 -8.25
vn 1 0 0
vn -1 0 0
vn 0 0 1
vn 0 1 0
vn -0.24214165827872405 -0.9685666331148962 0.05697450783028801
vn 0 0 -1
vn 0 1 0
vn -0.3157365169251751 -0.9472095507755254 0.05571820886914855
vn 0 0 -1
vn 0 1 0
vn 0 1 0
vn 0.2144310355958052 -0.9649396601811234 0.15136308394998013
vn 0.2144310355958052 -0.9649396601811234 0.15136308394998013
vn 0 0 -1
vn 0 0 -1
usemtl none
f 10/25/7 9/26/7 11/27/7 12/28/7
f 15/29/8 13/30/8 14/31/8 16/32/8
f 11/33/9 9/34/9 13/35/9 15/36/9
f 17/37/10 13/38/10 9/39/10 10/40/10
f 18/41/11 12/42/11 11/43/11 15/44/11
f 17/45/12 10/46/12 12/47/12 18/48/12
f 19/49/13 14/50/13 13/51/13
f 15/52/14 16/53/14 20/54/14
f 14/55/15 19/56/15 20/57/15 16/58/15
f 17/59/16 21/60/16 13/61/16
f 21/62/17 19/63/17 13/64/17
f 20/65/18 22/66/18 15/67/18
f 22/68/19 18/69/19 15/70/19
f 19/71/20 21/72/20 22/73/20 20/74/20
f 21/75/21 17/76/21 18/77/21 22/78/21