# Made in Blockbench 5.0.7
mtllib Northeast.mtl

o mesh
v 0.5 0.875 0.5
v 0.5 0.875 -0.5
v 0.5 0 0.5
v 0.5 0 -0.5
v -0.5 0.875 0.5
v -0.5 0.875 -0.5
v -0.5 0 0.5
v -0.5 0 -0.5
vt 4.1875 -6.5
vt 3.1875 -6.5
vt 3.1875 -7.375
vt 4.1875 -7.375
vt 8.5 -4
vt 8.5 -3.125
vt 7.5 -3.125
vt 7.5 -4
vt 1.6875 -5.5
vt 2.6875 -5.5
vt 2.6875 -4.5
vt 1.6875 -4.5
vt 3.75 -5.5
vt 3.75 -4.5
vt 2.75 -4.5
vt 2.75 -5.5
vt 5.25 -7.375
vt 5.25 -6.5
vt 4.25 -6.5
vt 4.25 -7.375
vt 6.3125 -6.5
vt 5.3125 -6.5
vt 5.3125 -7.375
vt 6.3125 -7.375
vn 1 0 0
vn -1 0 0
vn 0 1 0
vn 0 -1 0
vn 0 0 1
vn 0 0 -1
usemtl none
f 2/1/1 1/2/1 3/3/1 4/4/1
f 7/5/2 5/6/2 6/7/2 8/8/2
f 5/9/3 1/10/3 2/11/3 6/12/3
f 4/13/4 3/14/4 7/15/4 8/16/4
f 3/17/5 1/18/5 5/19/5 7/20/5
f 6/21/6 2/22/6 4/23/6 8/24/6
o mesh
v 0.5625 1 0.5
v 0.5625 1 -0.5625
v 0.5625 0.8125 0.5
v 0.5625 0.8125 -0.5625
v -0.5 1 0.5
v -0.5 1 -0.5625
v -0.5 0.875 0.5
v -0.5 0.8125 -0.5625
v -0.234375 1 -0.5625
v -0.234375 0.875 -0.5625
v 0.36328125 1 -0.5625
v 0.36328125 0.875 -0.5625
v 0.064453125 1 -0.5625
v 0.064453125 0.75 -0.5625
v 0.5625 0.875 -0.296875
v 0.5625 1 -0.296875
v 0.5625 0.875 0.30078125
v 0.5625 1 0.30078125
v 0.5625 0.75 0.001953125
v 0.5625 1 0.001953125
vt 10.3125 -0.25
vt 10.3125 -0.125
vt 9.25 -0.125
vt 9.25 -0.3125
vt 10.3125 -0.5625
vt 10.3125 -0.375
vt 9.25 -0.375
vt 9.25 -0.5
vt 1.390625 -2.125
vt 1.125 -2.125
vt 1.125 -3.1875
vt 8.914647876488349 -6.935665347725984
vt 8.914647876488349 -8
vt 9.1875 -7.996332476798617
vt 10.1875 -2.125
vt 9.921875 -2.125
vt 9.921875 -2.25
vt 10.1875 -2.3125
vt 9.32421875 -2.125
vt 9.125 -2.125
vt 9.125 -2.3125
vt 9.32421875 -2.25
vt 2.1875 -3.1875
vt 1.98828125 -2.125
vt 1.68945625 -2.125
vt 1.125 -3.1875
vt 1.68945625 -2.125
vt 1.390625 -2.125
vt 1.125 -3.1875
vt 1.0625 -3.3125
vt 0.8174548105321993 -2.245065742015608
vt 0.4935365154112499 -2.245065742015608
vt 0.05817917672988204 -3.2786597814524665
vt 8.85231875 -3.0625
vt 8.75915625 -2.75226875
vt 7.6875 -2.90738125
vt 9.921875 -2.125
vt 9.62304375 -2.125
vt 9.62304375 -2.375
vt 9.921875 -2.25
vt 9.62304375 -2.125
vt 9.32421875 -2.125
vt 9.32421875 -2.25
vt 9.62304375 -2.375
vt 10.1875 -2.4375
vt 9.921875 -2.4375
vt 9.921875 -2.5625
vt 10.1875 -2.625
vt 2.1875 -2.390625
vt 2.1875 -2.125
vt 1.98828125 -2.125
vt 0 0.9836875
vt 0.11953124999999999 0.8125
vt 0.33203125 0.9836875
vt 9.32421875 -2.4375
vt 9.125 -2.4375
vt 9.125 -2.625
vt 9.32421875 -2.5625
vt 2.1875 -3.1875
vt 2.1875 -2.98828125
vt 1.98828125 -2.125
vt 7.875525866586966 -2.8165958165109015
vt 7.687502444632596 -2.9073808961616554
vt 8.75915625 -2.75226875
vt 9.921875 -2.4375
vt 9.62304375 -2.4375
vt 9.62304375 -2.6875
vt 9.921875 -2.5625
vt 9.62304375 -2.4375
vt 9.32421875 -2.4375
vt 9.32421875 -2.5625
vt 9.62304375 -2.6875
vt 2.1875 -2.98828125
vt 2.1875 -2.68945625
vt 1.98828125 -2.125
vt 2.1875 -2.68945625
vt 2.1875 -2.390625
vt 1.98828125 -2.125
vt 2.5513938280488757 -2.0063200193930872
vt 2.25 -2.1249999999999996
vt 2.861490285912724 -2.125
vt 6.34479375 -8.5625
vt 6.63596875 -8.42058125
vt 5.75 -8.42058125
vn -1 0 0
vn 0 0 1
vn 0 1 0
vn 0.22866478019001177 -0.97182531580755 0.05716619504750294
vn 0 0 -1
vn 0 0 -1
vn 0 1 0
vn 0 1 0
vn -0.3841160205599599 -0.9182773616511541 -0.09602900513998998
vn 0.38284250270749565 -0.9152328580351067 -0.125620196200897
vn 0 0 -1
vn 0 0 -1
vn 1 0 0
vn 0 1 0
vn -0.292070023054765 -0.9309731984870635 0.21905251729107375
vn 1 0 0
vn 0 1 0
vn 0.7919744738790819 -0.5825581466514401 -0.18276334012594198
vn 1 0 0
vn 1 0 0
vn 0 1 0
vn 0 1 0
vn 0.45752160720739976 -0.8203219441726426 -0.3431412054055498
vn -0.8582479382997039 -0.47348053326870687 0.1980572165307009
usemtl none
f 15/25/7 13/26/7 14/27/7 16/28/7
f 11/29/8 9/30/8 13/31/8 15/32/8
f 17/33/9 14/34/9 13/35/9
f 15/36/10 16/37/10 18/38/10
f 14/39/11 17/40/11 18/41/11 16/42/11
f 19/43/12 10/44/12 12/45/12 20/46/12
f 9/47/13 19/48/13 21/49/13 13/50/13
f 21/51/14 17/52/14 13/53/14
f 15/54/15 18/55/15 22/56/15 11/57/15
f 22/58/16 20/59/16 11/60/16
f 17/61/17 21/62/17 22/63/17 18/64/17
f 21/65/18 19/66/18 20/67/18 22/68/18
f 10/69/19 24/70/19 23/71/19 12/72/19
f 24/73/20 10/74/20 19/75/20
f 20/76/21 12/77/21 23/78/21
f 26/79/22 9/80/22 11/81/22 25/82/22
f 9/83/23 26/84/23 19/85/23
f 25/86/24 11/87/24 20/88/24
f 24/89/25 28/90/25 27/91/25 23/92/25
f 28/93/26 26/94/26 25/95/26 27/96/26
f 26/97/27 28/98/27 19/99/27
f 28/100/28 24/101/28 19/102/28
f 23/103/29 27/104/29 20/105/29
f 27/106/30 25/107/30 20/108/30