# Made in Blockbench 5.0.7
mtllib Southeast.mtl

o mesh
v 0.5 0.875 0.5
v 0.5 0.875 -0.5
v 0.5 0 0.5
v 0.5 0 -0.5
v -0.5 0.875 0.5
v -0.5 0.875 -0.5
v -0.5 0 0.5
v -0.5 0 -0.5
vt 8 -4.3125
vt 7 -4.3125
vt 7 -5.1875
vt 8 -5.1875
vt 8.125 -0.8125
vt 8.125 0.0625
vt 7.125 0.0625
vt 7.125 -0.8125
vt 5.125 -2.125
vt 6.125 -2.125
vt 6.125 -1.125
vt 5.125 -1.125
vt 1.625 -5.375
vt 1.625 -4.375
vt 0.625 -4.375
vt 0.625 -5.375
vt 8.25 -1.75
vt 8.25 -0.875
vt 7.25 -0.875
vt 7.25 -1.75
vt 8.4375 -5.25
vt 7.4375 -5.25
vt 7.4375 -6.125
vt 8.4375 -6.125
vn 1 0 0
vn -1 0 0
vn 0 1 0
vn 0 -1 0
vn 0 0 1
vn 0 0 -1
usemtl none
f 2/1/1 1/2/1 3/3/1 4/4/1
f 7/5/2 5/6/2 6/7/2 8/8/2
f 5/9/3 1/10/3 2/11/3 6/12/3
f 4/13/4 3/14/4 7/15/4 8/16/4
f 3/17/5 1/18/5 5/19/5 7/20/5
f 6/21/6 2/22/6 4/23/6 8/24/6
o mesh
v 0.5625 1 0.5625
v 0.5625 1 -0.5
v 0.5625 0.8125 0.5625
v 0.5625 0.8125 -0.5
v -0.5 1 0.5625
v -0.5 1 -0.5
v -0.5 0.8125 0.5625
v -0.5 0.875 -0.5
v 0.5625 0.75 -0.234375
v 0.5625 1 -0.234375
v 0.5625 0.875 0.36328125
v 0.5625 1 0.36328125
v 0.5625 0.8125 0.064453125
v 0.5625 1 0.064453125
v 0.296875 0.75 0.5625
v 0.296875 1 0.5625
v -0.30078125 0.6875 0.5625
v -0.30078125 1 0.5625
v -0.001953125 0.8125 0.5625
v -0.001953125 1 0.5625
vt 10.1875 -4.875
vt 10.1875 -4.6875
vt 9.125 -4.6875
vt 9.125 -4.8125
vt 10.1875 -7.1875
vt 9.125 -7.1875
vt 9.125 -7.375
vt 10.1875 -7.3125
vt 10.125 -6.875
vt 9.859375 -6.875
vt 9.859375 -7.125
vt 10.125 -7.0625
vt 3.875 -0.390625
vt 3.875 -0.125
vt 2.8125 -0.125
vt 2.849463817947571 0.9952778952490753
vt 1.8186825679475713 0.7301091452490752
vt 1.8831075679475713 0.46494664524907525
vt 3.1071575679475716 -0.021190854750924748
vt 9.26171875 -6.875
vt 9.0625 -6.875
vt 9.0625 -7.0625
vt 9.26171875 -7
vt 9.859375 -6.875
vt 9.56054375 -6.875
vt 9.56054375 -7.0625
vt 9.859375 -7.125
vt 9.56054375 -6.875
vt 9.26171875 -6.875
vt 9.26171875 -7
vt 9.56054375 -7.0625
vt 3.875 -0.98828125
vt 3.875 -0.6894562500000001
vt 2.8125 -0.125
vt 3.875 -0.6894562500000001
vt 3.875 -0.390625
vt 2.8125 -0.125
vt 1.8831075679475715 0.46494664524907525
vt 1.9618304392159591 0.16997588238348071
vt 3.1188174320524285 -0.025821627338870057
vt 1.9618304392159591 0.16997588238348071
vt 2.0405461052406584 -0.125
vt 3.1188174320524285 -0.025821627338870057
vt 9.625 -3.75
vt 9.625 -3.5625
vt 9.359375 -3.5625
vt 9.359375 -3.8125
vt 3.609375 -1.1875
vt 3.875 -1.1875
vt 3.875 -0.98828125
vt 1.30703125 0.9769988924951156
vt 1.1875 0.8058113924951156
vt 1.4 0.6346176424951157
vt 8.76171875 -3.5625
vt 8.5625 -3.5625
vt 8.5625 -3.75
vt 8.76171875 -3.875
vt 2.8125 -1.1875
vt 3.01171875 -1.1875
vt 3.875 -0.98828125
vt 2.8125 -0.125
vt 7.484044414579396 -9.24923263067436
vt 7.625 -9.4375
vt 7.624999999999999 -8.3546763240115
vt 9.359375 -3.5625
vt 9.06054375 -3.5625
vt 9.06054375 -3.75
vt 9.359375 -3.8125
vt 9.06054375 -3.5625
vt 8.76171875 -3.5625
vt 8.76171875 -3.875
vt 9.06054375 -3.75
vt 3.01171875 -1.1875
vt 3.31054375 -1.1875
vt 3.875 -0.98828125
vt 3.31054375 -1.1875
vt 3.609375 -1.1875
vt 3.875 -0.98828125
vt 1.399999983842678 0.6346177019985956
vt 1.674009675897297 0.5
vt 1.30703125 0.9769988924951156
vt 6.905148863663101 -8.533565185376347
vt 6.594400886455201 -8.625
vt 7.5 -8.625
vn -1 0 0
vn 0 0 -1
vn 1 0 0
vn 0 1 0
vn -0.05716619504750294 -0.97182531580755 -0.22866478019001177
vn 1 0 0
vn 1 0 0
vn 1 0 0
vn 0 1 0
vn 0 1 0
vn 0.09552396370620589 -0.9743444298033 0.20378445590657254
vn 0.09552396370620589 -0.9743444298033 0.20378445590657254
vn 0 0 1
vn 0 1 0
vn 0.21905251729107375 -0.9309731984870635 -0.292070023054765
vn 0 0 1
vn 0 1 0
vn -0.1631518569112956 -0.26002327195237734 -0.951719165315891
vn 0 0 1
vn 0 0 1
vn 0 1 0
vn 0 1 0
vn -0.15314433229277477 -0.7322213387748294 -0.6636254399353574
vn 0.3007554071270278 -0.7189933951630508 0.6265737648479746
usemtl none
f 15/25/7 13/26/7 14/27/7 16/28/7
f 14/29/8 10/30/8 12/31/8 16/32/8
f 10/33/9 18/34/9 17/35/9 12/36/9
f 18/37/10 10/38/10 14/39/10
f 16/40/11 12/41/11 17/42/11 15/43/11
f 20/44/12 9/45/12 11/46/12 19/47/12
f 18/48/13 22/49/13 21/50/13 17/51/13
f 22/52/14 20/53/14 19/54/14 21/55/14
f 20/56/15 22/57/15 14/58/15
f 22/59/16 18/60/16 14/61/16
f 17/62/17 21/63/17 15/64/17
f 21/65/18 19/66/18 15/67/18
f 11/68/19 9/69/19 24/70/19 23/71/19
f 24/72/20 9/73/20 20/74/20
f 19/75/21 11/76/21 23/77/21
f 26/78/22 13/79/22 15/80/22 25/81/22
f 13/82/23 26/83/23 20/84/23 14/85/23
f 25/86/24 15/87/24 19/88/24
f 24/89/25 28/90/25 27/91/25 23/92/25
f 28/93/26 26/94/26 25/95/26 27/96/26
f 26/97/27 28/98/27 20/99/27
f 28/100/28 24/101/28 20/102/28
f 23/103/29 27/104/29 19/105/29
f 27/106/30 25/107/30 19/108/30