# Made in Blockbench 5.0.7
mtllib Southwest.mtl

o mesh
v 0.5 0.875 0.5
v 0.5 0.875 -0.5
v 0.5 0 0.5
v 0.5 0 -0.5
v -0.5 0.875 0.5
v -0.5 0.875 -0.5
v -0.5 0 0.5
v -0.5 0 -0.5
vt 5.25 -5.5625
vt 4.25 -5.5625
vt 4.25 -6.4375
vt 5.25 -6.4375
vt 6.3125 -6.4375
vt 6.3125 -5.5625
vt 5.3125 -5.5625
vt 5.3125 -6.4375
vt 4.5 -3.375
vt 5.5 -3.375
vt 5.5 -2.375
vt 4.5 -2.375
vt 6 -1.0625
vt 6 -0.0625
vt 5 -0.0625
vt 5 -1.0625
vt 7.375 -6.4375
vt 7.375 -5.5625
vt 6.375 -5.5625
vt 6.375 -6.4375
vt 7.625 -2.1875
vt 6.625 -2.1875
vt 6.625 -3.0625
vt 7.625 -3.0625
vn 1 0 0
vn -1 0 0
vn 0 1 0
vn 0 -1 0
vn 0 0 1
vn 0 0 -1
usemtl none
f 2/1/1 1/2/1 3/3/1 4/4/1
f 7/5/2 5/6/2 6/7/2 8/8/2
f 5/9/3 1/10/3 2/11/3 6/12/3
f 4/13/4 3/14/4 7/15/4 8/16/4
f 3/17/5 1/18/5 5/19/5 7/20/5
f 6/21/6 2/22/6 4/23/6 8/24/6
o mesh
v 0.5 1 0.5625
v 0.5 1 -0.5
v 0.5 0.8125 0.5625
v 0.5 0.875 -0.5
v -0.5625 1 0.5625
v -0.5625 1 -0.5
v -0.5625 0.8125 0.5625
v -0.5625 0.8125 -0.5
v -0.296875 1 0.5625
v -0.296875 0.875 0.5625
v 0.30078125 1 0.5625
v 0.30078125 0.875 0.5625
v -0.5625 1 -0.234375
v -0.5625 0.875 -0.234375
v -0.5625 1 0.36328125
v -0.5625 0.75 0.36328125
v -0.5625 1 0.064453125
v -0.5625 0.8125 0.064453125
v 0.001953125 1 0.5625
v 0.001953125 0.8125 0.5625
vt 10.1875 -3.0625
vt 9.125 -3.0625
vt 9.125 -3.25
vt 10.1875 -3.1875
vt 10.1875 -4.1875
vt 9.125 -4.1875
vt 9.125 -4.3125
vt 10.1875 -4.375
vt 9.390625 -4.4375
vt 9.125 -4.4375
vt 9.125 -4.625
vt 9.390625 -4.5625
vt 0.86328125 -2.125
vt 1.0625 -2.125
vt 1.0625 -1.0625
vt 0.9627287899021667 0.99600469472264
vt 0 0.5421721261937023
vt 0.09233444924032996 0.3549
vt 1.3838032232314026 0.09416910352567043
vt 10.1875 -4.625
vt 10.1875 -4.4375
vt 9.98828125 -4.4375
vt 9.98828125 -4.5625
vt 0 -1.0625
vt 0 -1.328125
vt 0.265625 -2.125
vt 1.0625 -1.0625
vt 5.135836303133748 -8.60732916361555
vt 4.875 -8.6875
vt 5.971982903524481 -8.6875
vt 8.890625 0.625
vt 8.625 0.625
vt 8.625 0.4375
vt 8.890625 0.5
vt 0 -1.92578125
vt 0 -2.125
vt 0.265625 -2.125
vt 0.21413574136724056 -0.2356631346985738
vt 0.0016357413672405396 -0.40685063469857363
vt 0.12116699136724052 -0.5780443846985737
vt 9.6875 0.4375
vt 9.6875 0.625
vt 9.48828125 0.625
vt 9.48828125 0.375
vt 0 -1.328125
vt 0 -1.62695
vt 0.265625 -2.125
vt 0 -1.62695
vt 0 -1.92578125
vt 0.265625 -2.125
vt 0.12116617658020734 -0.5780473853606547
vt 0.34183593186870026 -0.789022396653412
vt 0.21413574136724056 -0.2356631346985738
vt 0.34183593186870026 -0.789022396653412
vt 0.5625 -1
vt 0.21413574136724056 -0.2356631346985738
vt 9.48828125 0.625
vt 9.18945 0.625
vt 9.18945 0.4375
vt 9.48828125 0.375
vt 9.18945 0.625
vt 8.890625 0.625
vt 8.890625 0.5
vt 9.18945 0.4375
vt 0.265625 -2.125
vt 0.56445 -2.125
vt 1.0625 -1.0625
vt 0.56445 -2.125
vt 0.86328125 -2.125
vt 1.0625 -1.0625
vt 0.09233444924032996 0.3548999999999999
vt 0.23253444924032995 0.08369999999999989
vt 1.43565944924033 0.08369999999999989
vt 0.23253444924032995 0.0837
vt 0.37272819924032996 -0.1875
vt 1.43565944924033 0.08370000000000011
vt 9.98828125 -4.4375
vt 9.68945 -4.4375
vt 9.68945 -4.625
vt 9.98828125 -4.5625
vt 9.68945 -4.4375
vt 9.390625 -4.4375
vt 9.390625 -4.5625
vt 9.68945 -4.625
vn 1 0 0
vn 0 0 -1
vn 0 0 1
vn 0 1 0
vn -0.29886970136662494 -0.952647173106117 -0.056038069006242176
vn 0 0 1
vn 0 1 0
vn -0.5663150138196105 -0.8022796029111148 0.1887716712732035
vn -1 0 0
vn 0 1 0
vn 0.21905251729107375 -0.9309731984870635 0.292070023054765
vn -1 0 0
vn 0 1 0
vn 0 1 0
vn 0.5233414724341957 -0.8340754716919994 -0.17444715747806522
vn 0.5233414724341957 -0.8340754716919994 -0.17444715747806522
vn -1 0 0
vn -1 0 0
vn 0 1 0
vn 0 1 0
vn 0.2035205076621875 -0.973082427259834 -0.1081202696955371
vn -0.2035205076621875 -0.973082427259834 0.1081202696955371
vn 0 0 1
vn 0 0 1
usemtl none
f 10/25/7 9/26/7 11/27/7 12/28/7
f 14/29/8 10/30/8 12/31/8 16/32/8
f 17/33/9 13/34/9 15/35/9 18/36/9
f 19/37/10 9/38/10 10/39/10
f 12/40/11 11/41/11 20/42/11 16/43/11
f 11/44/12 9/45/12 19/46/12 20/47/12
f 14/48/13 21/49/13 17/50/13 10/51/13
f 22/52/14 16/53/14 18/54/14
f 21/55/15 14/56/15 16/57/15 22/58/15
f 23/59/16 13/60/16 17/61/16
f 18/62/17 15/63/17 24/64/17
f 15/65/18 13/66/18 23/67/18 24/68/18
f 21/69/19 25/70/19 17/71/19
f 25/72/20 23/73/20 17/74/20
f 24/75/21 26/76/21 18/77/21
f 26/78/22 22/79/22 18/80/22
f 23/81/23 25/82/23 26/83/23 24/84/23
f 25/85/24 21/86/24 22/87/24 26/88/24
f 17/89/25 27/90/25 10/91/25
f 27/92/26 19/93/26 10/94/26
f 20/95/27 28/96/27 16/97/27
f 28/98/28 18/99/28 16/100/28
f 19/101/29 27/102/29 28/103/29 20/104/29
f 27/105/30 17/106/30 18/107/30 28/108/30