# Made in Blockbench 5.0.7
mtllib South.mtl

o mesh
v 0.5 0.875 0.5
v 0.5 0.875 -0.5
v 0.5 0 0.5
v 0.5 0 -0.5
v -0.5 0.875 0.5
v -0.5 0.875 -0.5
v -0.5 0 0.5
v -0.5 0 -0.5
vt 6.3125 -7.4375
vt 5.3125 -7.4375
vt 5.3125 -8.3125
vt 6.3125 -8.3125
vt 7.375 -8.3125
vt 7.375 -7.4375
vt 6.375 -7.4375
vt 6.375 -8.3125
vt 0 -6.4375
vt 1 -6.4375
vt 1 -5.4375
vt 0 -5.4375
vt 7.4375 -4.25
vt 7.4375 -3.25
vt 6.4375 -3.25
vt 6.4375 -4.25
vt 9.5 -5.875
vt 9.5 -5
vt 8.5 -5
vt 8.5 -5.875
vt 9.5 -5.9375
vt 8.5 -5.9375
vt 8.5 -6.8125
vt 9.5 -6.8125
vn 1 0 0
vn -1 0 0
vn 0 1 0
vn 0 -1 0
vn 0 0 1
vn 0 0 -1
usemtl none
f 2/1/1 1/2/1 3/3/1 4/4/1
f 7/5/2 5/6/2 6/7/2 8/8/2
f 5/9/3 1/10/3 2/11/3 6/12/3
f 4/13/4 3/14/4 7/15/4 8/16/4
f 3/17/5 1/18/5 5/19/5 7/20/5
f 6/21/6 2/22/6 4/23/6 8/24/6
o mesh
v 0.5 1 0.5625
v 0.5 1 -0.5
v 0.5 0.8125 0.5625
v 0.5 0.875 -0.5
v -0.5 1 0.5625
v -0.5 1 -0.5
v -0.5 0.8125 0.5625
v -0.5 0.875 -0.5
v 0.0625 0.875 0.5625
v 0.25 1 0.5625
v -0.1875 0.875 0.5625
v -0.3125 1 0.5625
v -0.03125 0.75 0.5625
v -0.03125 1 0.5625
vt 3.3125 -8.375
vt 2.25 -8.375
vt 2.25 -8.5625
vt 3.3125 -8.5
vt 10.4375 -1.5625
vt 10.4375 -1.375
vt 9.375 -1.375
vt 9.375 -1.5
vt 10.5625 -5.875
vt 9.5625 -5.875
vt 9.5625 -6
vt 10.5625 -6
vt 0.010015384511081415 -3.4356658652516003
vt 0.010015384511081415 -4.5
vt 0.45194092328813906 -4.49633439060559
vt 1 -3.4356658652516003
vt 10.125 -2.9375
vt 10.125 -2.75
vt 9.875 -2.75
vt 9.6875 -2.875
vt 1.875 -4.3125
vt 2.125 -4.3125
vt 2.125 -3.25
vt 8.5625 -3.181315100704375
vt 8.5625 -3.5
vt 9.626770280449696 -3.4877443159247736
vt 9.3125 -2.75
vt 9.125 -2.75
vt 9.125 -2.9375
vt 9.4375 -2.875
vt 1.125 -3.25
vt 1.125 -4.3125
vt 1.3125 -4.3125
vt 2.125 -3.25
vt 4.4375 -8.41253125
vt 4.48136875 -8.5625
vt 5.6397125 -8.41253125
vt 8.5 -9.3125
vt 8.685069601336313 -9.236416686001261
vt 8.5 -8.144482925899357
vt 9.875 -2.75
vt 9.59375 -2.75
vt 9.6875 -2.875
vt 9.3125 -2.75
vt 9.4375 -2.875
vt 9.59375 -3
vt 1.3125 -4.3125
vt 1.59375 -4.3125
vt 2.125 -3.25
vt 1.59375 -4.3125
vt 1.875 -4.3125
vt 2.125 -3.25
vt 9.59375 -2.75
vt 9.3125 -2.75
vt 9.59375 -3
vt 9.59375 -2.75
vt 9.59375 -3
vt 9.6875 -2.875
vn 1 0 0
vn -1 0 0
vn 0 0 -1
vn -0.1411821841864768 -0.9882752893053376 -0.0581338405473728
vn 0 0 1
vn 0 1 0
vn 0.1957906957729778 -0.978953478864889 -0.057585498756758176
vn 0 0 1
vn 0 1 0
vn 0.7366541334217098 -0.5524906000662824 -0.38999336475266994
vn -0.6144104524650389 -0.7680130655812986 0.18070895660736436
vn 0 0 1
vn 0 0 1
vn 0 1 0
vn 0 1 0
vn 0 0 1
vn 0 0 1
usemtl none
f 10/25/7 9/26/7 11/27/7 12/28/7
f 15/29/8 13/30/8 14/31/8 16/32/8
f 14/33/9 10/34/9 12/35/9 16/36/9
f 12/37/10 11/38/10 17/39/10 16/40/10
f 11/41/11 9/42/11 18/43/11 17/44/11
f 18/45/12 9/46/12 10/47/12
f 19/48/13 15/49/13 16/50/13
f 20/51/14 13/52/14 15/53/14 19/54/14
f 14/55/15 13/56/15 20/57/15 10/58/15
f 17/59/16 21/60/16 16/61/16
f 21/62/17 19/63/17 16/64/17
f 18/65/18 22/66/18 17/67/18
f 20/68/19 19/69/19 21/70/19
f 20/71/20 22/72/20 10/73/20
f 22/74/21 18/75/21 10/76/21
f 22/77/22 20/78/22 21/79/22
f 22/80/23 21/81/23 17/82/23