# Made in Blockbench 5.0.7
mtllib West.mtl

o mesh
v 0.5 0.875 0.5
v 0.5 0.875 -0.5
v 0.5 0 0.5
v 0.5 0 -0.5
v -0.5 0.875 0.5
v -0.5 0.875 -0.5
v -0.5 0 0.5
v -0.5 0 -0.5
vt 7.375 -6.5
vt 6.375 -6.5
vt 6.375 -7.375
vt 7.375 -7.375
vt 8.5625 0.125
vt 8.5625 1
vt 7.5625 1
vt 7.5625 0.125
vt 3.8125 -5.5
vt 4.8125 -5.5
vt 4.8125 -4.5
vt 3.8125 -4.5
vt 5.875 -5.5
vt 5.875 -4.5
vt 4.875 -4.5
vt 4.875 -5.5
vt 8.6875 -2.6875
vt 8.6875 -1.8125
vt 7.6875 -1.8125
vt 7.6875 -2.6875
vt 9.0625 -4.0625
vt 8.0625 -4.0625
vt 8.0625 -4.9375
vt 9.0625 -4.9375
vn 1 0 0
vn -1 0 0
vn 0 1 0
vn 0 -1 0
vn 0 0 1
vn 0 0 -1
usemtl none
f 2/1/1 1/2/1 3/3/1 4/4/1
f 7/5/2 5/6/2 6/7/2 8/8/2
f 5/9/3 1/10/3 2/11/3 6/12/3
f 4/13/4 3/14/4 7/15/4 8/16/4
f 3/17/5 1/18/5 5/19/5 7/20/5
f 6/21/6 2/22/6 4/23/6 8/24/6
o mesh
v 0.5 1 0.5
v 0.5 1 -0.5
v 0.5 0.875 0.5
v 0.5 0.875 -0.5
v -0.5625 1 0.5
v -0.5625 1 -0.5
v -0.5625 0.8125 0.5
v -0.5625 0.8125 -0.5
v -0.5625 1 0.25
v -0.5625 0.875 0.25
v -0.5625 1 -0.3125
v -0.5625 0.875 -0.3125
v -0.5625 1 -0.03125
v -0.5625 0.8125 -0.03125
vt 10.5625 -5.3125
vt 9.5625 -5.3125
vt 9.5625 -5.4375
vt 10.5625 -5.4375
vt 10.3125 -0.75
vt 10.3125 -0.625
vt 9.25 -0.625
vt 9.25 -0.8125
vt 10.3125 -7.6875
vt 9.25 -7.6875
vt 9.25 -7.8125
vt 10.3125 -7.875
vt 2.25 -3.125
vt 2.25 -3.375
vt 3.3125 -3.375
vt 3.3125 -2.375
vt 3.2211590267878107 0.7113106182637758
vt 4.283659026787811 -0.03868938173622416
vt 4.283659026787811 0.9613106182637758
vt 3.2211590267878107 0.9613106182637758
vt 4.375 -8.5625
vt 4.375 -8.375
vt 4.125 -8.375
vt 4.125 -8.5
vt 3.3125 -2.375
vt 2.25 -2.375
vt 2.25 -2.5625
vt 3.218838300181244 0.13514009366238633
vt 3.2195867218108702 -0.0625
vt 4.283655656906243 -0.03868792327802906
vt 3.5625 -8.375
vt 3.375 -8.375
vt 3.375 -8.5625
vt 3.5625 -8.5
vt 2.25 -2.5625
vt 2.25 -2.84375
vt 3.3125 -2.375
vt 2.25 -2.84375
vt 2.25 -3.125
vt 3.3125 -2.375
vt 3.22115657826797 0.7113123466307221
vt 3.2163409732121893 0.4232374638102837
vt 4.283659026787811 -0.03868938173622416
vt 3.2163409732121893 0.4232374638102837
vt 3.218838300181244 0.13514009366238633
vt 4.283655656906243 -0.03868792327802906
vt 4.125 -8.375
vt 3.84375 -8.375
vt 3.84375 -8.5625
vt 4.125 -8.5
vt 3.84375 -8.375
vt 3.5625 -8.375
vt 3.5625 -8.5
vt 3.84375 -8.5625
vn 1 0 0
vn 0 0 1
vn 0 0 -1
vn 0 1 0
vn 0 -1 0
vn -1 0 0
vn 0 1 0
vn 0.05571820886914855 -0.9472095507755254 0.3157365169251751
vn -1 0 0
vn 0 1 0
vn 0 1 0
vn 0.15136308394998013 -0.9649396601811234 0.2144310355958052
vn -0.03825382527492785 -0.9754725445106601 -0.21677167655792445
vn -1 0 0
vn -1 0 0
usemtl none
f 10/25/7 9/26/7 11/27/7 12/28/7
f 11/29/8 9/30/8 13/31/8 15/32/8
f 14/33/9 10/34/9 12/35/9 16/36/9
f 17/37/10 13/38/10 9/39/10 10/40/10
f 18/41/11 12/42/11 11/43/11 15/44/11
f 15/45/12 13/46/12 17/47/12 18/48/12
f 10/49/13 14/50/13 19/51/13
f 20/52/14 16/53/14 12/54/14
f 19/55/15 14/56/15 16/57/15 20/58/15
f 19/59/16 21/60/16 10/61/16
f 21/62/17 17/63/17 10/64/17
f 18/65/18 22/66/18 12/67/18
f 22/68/19 20/69/19 12/70/19
f 17/71/20 21/72/20 22/73/20 18/74/20
f 21/75/21 19/76/21 20/77/21 22/78/21